<svg width="18" height="20" viewBox="0 0 18 20" fill="none" xmlns="http://www.w3.org/2000/svg">
<path d="M16.5952 7.78586C16.9078 7.95882 17.1684 8.21236 17.3498 8.52011C17.5313 8.82787 17.627 9.1786 17.627 9.53586C17.627 9.89312 17.5313 10.2439 17.3498 10.5516C17.1684 10.8594 16.9078 11.1129 16.5952 11.2859L2.9672 18.8219C2.66272 18.9903 2.31958 19.0763 1.97166 19.0715C1.62375 19.0667 1.28311 18.9713 0.983383 18.7945C0.683659 18.6178 0.435225 18.366 0.262623 18.0638C0.0900211 17.7617 -0.000778198 17.4198 -0.000801086 17.0719V1.99986C-0.000778198 1.65192 0.0900211 1.31 0.262623 1.00788C0.435225 0.705763 0.683659 0.453902 0.983383 0.277177C1.28311 0.100453 1.62375 0.00497961 1.97166 0.000189574C2.31958 -0.00460047 2.66272 0.0814582 2.9672 0.249864L16.5952 7.78586Z" fill="white"/>
</svg>
