<svg width="227" height="165" viewBox="0 0 227 165" fill="none" xmlns="http://www.w3.org/2000/svg">
<mask id="mask0_1_254" style="mask-type:luminance" maskUnits="userSpaceOnUse" x="0" y="0" width="200" height="165">
<path d="M0.998019 87.4825C0.998019 113.489 22.0777 134.564 48.0815 134.564C49.777 134.564 51.45 134.471 53.103 134.296C61.5578 152.245 79.8059 164.675 100.963 164.675C127.621 164.675 149.66 144.949 153.305 119.297C156.292 120.178 159.445 120.66 162.716 120.66C181.039 120.66 195.892 105.806 195.892 87.4825C195.892 81.8743 194.493 76.5956 192.039 71.9662C196.818 67.5815 199.832 61.3039 199.832 54.3073C199.832 41.0657 189.097 30.3311 175.858 30.3311C173.823 30.3311 171.863 30.6083 169.975 31.0877C162.714 16.4128 146.099 6.15015 126.75 6.15015C114.042 6.15015 102.516 10.5848 94.0389 17.7787C86.7751 7.05408 74.4923 0 60.5615 0C38.2483 0 20.16 18.0883 20.16 40.4015C20.16 43.3305 20.4771 46.1796 21.0689 48.9313C8.93846 57.4461 0.998019 71.5367 0.998019 87.4825Z" fill="white"/>
</mask>
<g mask="url(#mask0_1_254)">
<path d="M0.998019 87.4825C0.998019 113.489 22.0777 134.564 48.0815 134.564C49.777 134.564 51.45 134.471 53.103 134.296C61.5578 152.245 79.8059 164.675 100.963 164.675C127.621 164.675 149.66 144.949 153.305 119.297C156.292 120.178 159.445 120.66 162.716 120.66C181.039 120.66 195.892 105.806 195.892 87.4825C195.892 81.8743 194.493 76.5956 192.039 71.9662C196.818 67.5815 199.832 61.3039 199.832 54.3073C199.832 41.0657 189.097 30.3311 175.858 30.3311C173.823 30.3311 171.863 30.6083 169.975 31.0877C162.714 16.4128 146.099 6.15015 126.75 6.15015C114.042 6.15015 102.516 10.5848 94.0389 17.7787C86.7751 7.05408 74.4923 0 60.5615 0C38.2483 0 20.16 18.0883 20.16 40.4015C20.16 43.3305 20.4771 46.1796 21.0689 48.9313C8.93846 57.4461 0.998019 71.5367 0.998019 87.4825Z" fill="#ECF9FF"/>
</g>
<mask id="mask1_1_254" style="mask-type:luminance" maskUnits="userSpaceOnUse" x="204" y="20" width="18" height="16">
<path d="M204.303 27.7599C204.303 23.695 208.262 20.4004 213.145 20.4004C218.029 20.4004 221.986 23.695 221.986 27.7599C221.986 31.8236 218.029 35.117 213.145 35.117C208.262 35.117 204.303 31.8236 204.303 27.7599Z" fill="white"/>
</mask>
<g mask="url(#mask1_1_254)">
<path d="M204.303 27.7599C204.303 23.695 208.262 20.4004 213.145 20.4004C218.029 20.4004 221.986 23.695 221.986 27.7599C221.986 31.8236 218.029 35.117 213.145 35.117C208.262 35.117 204.303 31.8236 204.303 27.7599Z" fill="#ECF9FF"/>
</g>
<mask id="mask2_1_254" style="mask-type:luminance" maskUnits="userSpaceOnUse" x="217" y="10" width="10" height="8">
<path d="M217.865 13.6051C217.865 11.6198 219.878 10.0098 222.36 10.0098C224.842 10.0098 226.853 11.6198 226.853 13.6051C226.853 15.5916 224.842 17.2016 222.36 17.2016C219.878 17.2016 217.865 15.5916 217.865 13.6051Z" fill="white"/>
</mask>
<g mask="url(#mask2_1_254)">
<path d="M217.865 13.6051C217.865 11.6198 219.878 10.0098 222.36 10.0098C224.842 10.0098 226.853 11.6198 226.853 13.6051C226.853 15.5916 224.842 17.2016 222.36 17.2016C219.878 17.2016 217.865 15.5916 217.865 13.6051Z" fill="#ECF9FF"/>
</g>
</svg>
