<svg width="139" height="131" viewBox="0 0 139 131" fill="none" xmlns="http://www.w3.org/2000/svg">
<mask id="mask0_1_472" style="mask-type:luminance" maskUnits="userSpaceOnUse" x="0" y="15" width="139" height="117">
<path d="M139 76.6951C139 94.9908 124.264 109.817 106.085 109.817C104.9 109.817 103.73 109.752 102.575 109.629C96.6641 122.256 83.9073 131.001 69.1169 131.001C50.4809 131.001 35.0742 117.123 32.5257 99.0768C30.4379 99.6969 28.2332 100.036 25.9465 100.036C13.1373 100.036 2.75455 89.5855 2.75455 76.6951C2.75455 72.7497 3.73208 69.0361 5.448 65.7792C2.10693 62.6945 0 58.2782 0 53.3561C0 44.0405 7.50432 36.4886 16.7595 36.4886C18.1821 36.4886 19.5524 36.6836 20.8721 37.0209C25.9483 26.6969 37.5635 19.4771 51.0901 19.4771C59.9734 19.4771 68.0311 22.5969 73.9574 27.6579C79.0353 20.113 87.6219 15.1504 97.3606 15.1504C112.959 15.1504 125.604 27.8757 125.604 43.5732C125.604 45.6338 125.383 47.6382 124.969 49.574C133.449 55.5642 139 65.4771 139 76.6951Z" fill="white"/>
</mask>
<g mask="url(#mask0_1_472)">
<path d="M139 76.6951C139 94.9908 124.264 109.817 106.085 109.817C104.9 109.817 103.73 109.752 102.575 109.629C96.6641 122.256 83.9073 131.001 69.1169 131.001C50.4809 131.001 35.0742 117.123 32.5257 99.0768C30.4379 99.6969 28.2332 100.036 25.9465 100.036C13.1373 100.036 2.75455 89.5855 2.75455 76.6951C2.75455 72.7497 3.73208 69.0361 5.448 65.7792C2.10693 62.6945 0 58.2782 0 53.3561C0 44.0405 7.50432 36.4886 16.7595 36.4886C18.1821 36.4886 19.5524 36.6836 20.8721 37.0209C25.9483 26.6969 37.5635 19.4771 51.0901 19.4771C59.9734 19.4771 68.0311 22.5969 73.9574 27.6579C79.0353 20.113 87.6219 15.1504 97.3606 15.1504C112.959 15.1504 125.604 27.8757 125.604 43.5732C125.604 45.6338 125.383 47.6382 124.969 49.574C133.449 55.5642 139 65.4771 139 76.6951Z" fill="#ECF9FF"/>
</g>
<mask id="mask1_1_472" style="mask-type:luminance" maskUnits="userSpaceOnUse" x="29" y="7" width="13" height="11">
<path d="M41.6432 12.488C41.6432 9.62836 38.8754 7.31055 35.4622 7.31055C32.0474 7.31055 29.2812 9.62836 29.2812 12.488C29.2812 15.3469 32.0474 17.6638 35.4622 17.6638C38.8754 17.6638 41.6432 15.3469 41.6432 12.488Z" fill="white"/>
</mask>
<g mask="url(#mask1_1_472)">
<path d="M41.6432 12.488C41.6432 9.62836 38.8754 7.31055 35.4622 7.31055C32.0474 7.31055 29.2812 9.62836 29.2812 12.488C29.2812 15.3469 32.0474 17.6638 35.4622 17.6638C38.8754 17.6638 41.6432 15.3469 41.6432 12.488Z" fill="#ECF9FF"/>
</g>
<mask id="mask2_1_472" style="mask-type:luminance" maskUnits="userSpaceOnUse" x="25" y="0" width="8" height="6">
<path d="M32.1604 2.52933C32.1604 1.1327 30.7535 0 29.0182 0C27.283 0 25.877 1.1327 25.877 2.52933C25.877 3.92684 27.283 5.05952 29.0182 5.05952C30.7535 5.05952 32.1604 3.92684 32.1604 2.52933Z" fill="white"/>
</mask>
<g mask="url(#mask2_1_472)">
<path d="M32.1604 2.52933C32.1604 1.1327 30.7535 0 29.0182 0C27.283 0 25.877 1.1327 25.877 2.52933C25.877 3.92684 27.283 5.05952 29.0182 5.05952C30.7535 5.05952 32.1604 3.92684 32.1604 2.52933Z" fill="#ECF9FF"/>
</g>
</svg>
