<svg width="267" height="195" viewBox="0 0 267 195" fill="none" xmlns="http://www.w3.org/2000/svg">
<mask id="mask0_1_192" style="mask-type:luminance" maskUnits="userSpaceOnUse" x="31" y="0" width="236" height="195">
<path d="M267 91.2559C267 60.5119 242.08 35.5978 211.339 35.5978C209.335 35.5978 207.357 35.7071 205.403 35.9137C195.408 14.6954 173.835 0.000887441 148.824 0.000887441C117.309 0.000887441 91.2556 23.3209 86.9458 53.6458C83.4154 52.6038 79.6871 52.034 75.8201 52.034C54.1591 52.034 36.6012 69.5949 36.6012 91.2559C36.6012 97.8859 38.2543 104.126 41.156 109.599C35.506 114.783 31.9431 122.204 31.9431 130.475C31.9431 146.129 44.6333 158.819 60.2843 158.819C62.6901 158.819 65.0074 158.491 67.239 157.925C75.8231 175.273 95.4651 187.405 118.339 187.405C133.362 187.405 146.988 182.163 157.009 173.658C165.596 186.337 180.117 194.676 196.585 194.676C222.964 194.676 244.347 173.292 244.347 146.914C244.347 143.451 243.972 140.083 243.273 136.83C257.613 126.764 267 110.107 267 91.2559Z" fill="white"/>
</mask>
<g mask="url(#mask0_1_192)">
<path d="M267 91.2559C267 60.5119 242.08 35.5978 211.339 35.5978C209.335 35.5978 207.357 35.7071 205.403 35.9137C195.408 14.6954 173.835 0.000887441 148.824 0.000887441C117.309 0.000887441 91.2556 23.3209 86.9458 53.6458C83.4154 52.6038 79.6871 52.034 75.8201 52.034C54.1591 52.034 36.6012 69.5949 36.6012 91.2559C36.6012 97.8859 38.2543 104.126 41.156 109.599C35.506 114.783 31.9431 122.204 31.9431 130.475C31.9431 146.129 44.6333 158.819 60.2843 158.819C62.6901 158.819 65.0074 158.491 67.239 157.925C75.8231 175.273 95.4651 187.405 118.339 187.405C133.362 187.405 146.988 182.163 157.009 173.658C165.596 186.337 180.117 194.676 196.585 194.676C222.964 194.676 244.347 173.292 244.347 146.914C244.347 143.451 243.972 140.083 243.273 136.83C257.613 126.764 267 110.107 267 91.2559Z" fill="#ECF9FF"/>
</g>
<mask id="mask1_1_192" style="mask-type:luminance" maskUnits="userSpaceOnUse" x="5" y="153" width="22" height="18">
<path d="M26.6587 161.862C26.6587 166.668 21.9781 170.562 16.2063 170.562C10.4316 170.562 5.75391 166.668 5.75391 161.862C5.75391 157.058 10.4316 153.165 16.2063 153.165C21.9781 153.165 26.6587 157.058 26.6587 161.862Z" fill="white"/>
</mask>
<g mask="url(#mask1_1_192)">
<path d="M26.6587 161.862C26.6587 166.668 21.9781 170.562 16.2063 170.562C10.4316 170.562 5.75391 166.668 5.75391 161.862C5.75391 157.058 10.4316 153.165 16.2063 153.165C21.9781 153.165 26.6587 157.058 26.6587 161.862Z" fill="#ECF9FF"/>
</g>
<mask id="mask2_1_192" style="mask-type:luminance" maskUnits="userSpaceOnUse" x="0" y="174" width="11" height="9">
<path d="M10.6257 178.593C10.6257 180.94 8.24645 182.844 5.31209 182.844C2.37773 182.844 0 180.94 0 178.593C0 176.245 2.37773 174.342 5.31209 174.342C8.24645 174.342 10.6257 176.245 10.6257 178.593Z" fill="white"/>
</mask>
<g mask="url(#mask2_1_192)">
<path d="M10.6257 178.593C10.6257 180.94 8.24645 182.844 5.31209 182.844C2.37773 182.844 0 180.94 0 178.593C0 176.245 2.37773 174.342 5.31209 174.342C8.24645 174.342 10.6257 176.245 10.6257 178.593Z" fill="#ECF9FF"/>
</g>
</svg>
