<svg width="128" height="94" viewBox="0 0 128 94" fill="none" xmlns="http://www.w3.org/2000/svg">
<mask id="mask0_1_411" style="mask-type:luminance" maskUnits="userSpaceOnUse" x="0" y="0" width="113" height="94">
<path d="M0.00315094 44.0631C0.00315094 29.2181 11.95 17.1882 26.6875 17.1882C27.6484 17.1882 28.5966 17.2409 29.5334 17.3407C34.3252 7.09534 44.6672 0 56.6579 0C71.7662 0 84.2565 11.2602 86.3226 25.9028C88.0152 25.3996 89.8025 25.1245 91.6564 25.1245C102.041 25.1245 110.458 33.6039 110.458 44.0631C110.458 47.2644 109.666 50.2775 108.275 52.9201C110.983 55.423 112.691 59.0064 112.691 63.0002C112.691 70.5588 106.608 76.6864 99.1044 76.6864C97.951 76.6864 96.8401 76.5281 95.7703 76.2545C91.6549 84.6312 82.2384 90.4894 71.2723 90.4894C64.0705 90.4894 57.5381 87.9579 52.7336 83.8515C48.6169 89.9734 41.6557 94 33.7605 94C21.1146 94 10.8631 83.6748 10.8631 70.9379C10.8631 69.266 11.0428 67.6397 11.3782 66.0689C4.50336 61.2085 0.00315094 53.1653 0.00315094 44.0631Z" fill="white"/>
</mask>
<g mask="url(#mask0_1_411)">
<path d="M0.00315094 44.0631C0.00315094 29.2181 11.95 17.1882 26.6875 17.1882C27.6484 17.1882 28.5966 17.2409 29.5334 17.3407C34.3252 7.09534 44.6672 0 56.6579 0C71.7662 0 84.2565 11.2602 86.3226 25.9028C88.0152 25.3996 89.8025 25.1245 91.6564 25.1245C102.041 25.1245 110.458 33.6039 110.458 44.0631C110.458 47.2644 109.666 50.2775 108.275 52.9201C110.983 55.423 112.691 59.0064 112.691 63.0002C112.691 70.5588 106.608 76.6864 99.1044 76.6864C97.951 76.6864 96.8401 76.5281 95.7703 76.2545C91.6549 84.6312 82.2384 90.4894 71.2723 90.4894C64.0705 90.4894 57.5381 87.9579 52.7336 83.8515C48.6169 89.9734 41.6557 94 33.7605 94C21.1146 94 10.8631 83.6748 10.8631 70.9379C10.8631 69.266 11.0428 67.6397 11.3782 66.0689C4.50336 61.2085 0.00315094 53.1653 0.00315094 44.0631Z" fill="#ECF9FF"/>
</g>
<mask id="mask1_1_411" style="mask-type:luminance" maskUnits="userSpaceOnUse" x="115" y="73" width="11" height="10">
<path d="M115.224 78.1545C115.224 80.4748 117.468 82.3555 120.235 82.3555C123.004 82.3555 125.246 80.4748 125.246 78.1545C125.246 75.8349 123.004 73.9549 120.235 73.9549C117.468 73.9549 115.224 75.8349 115.224 78.1545Z" fill="white"/>
</mask>
<g mask="url(#mask1_1_411)">
<path d="M115.224 78.1545C115.224 80.4748 117.468 82.3555 120.235 82.3555C123.004 82.3555 125.246 80.4748 125.246 78.1545C125.246 75.8349 123.004 73.9549 120.235 73.9549C117.468 73.9549 115.224 75.8349 115.224 78.1545Z" fill="#ECF9FF"/>
</g>
<mask id="mask2_1_411" style="mask-type:luminance" maskUnits="userSpaceOnUse" x="122" y="84" width="6" height="5">
<path d="M122.906 86.2346C122.906 87.3678 124.047 88.2869 125.453 88.2869C126.86 88.2869 128 87.3678 128 86.2346C128 85.1007 126.86 84.1816 125.453 84.1816C124.047 84.1816 122.906 85.1007 122.906 86.2346Z" fill="white"/>
</mask>
<g mask="url(#mask2_1_411)">
<path d="M122.906 86.2346C122.906 87.3678 124.047 88.2869 125.453 88.2869C126.86 88.2869 128 87.3678 128 86.2346C128 85.1007 126.86 84.1816 125.453 84.1816C124.047 84.1816 122.906 85.1007 122.906 86.2346Z" fill="#ECF9FF"/>
</g>
</svg>
