<svg width="129" height="119" viewBox="0 0 129 119" fill="none" xmlns="http://www.w3.org/2000/svg">
<mask id="mask0_1_453" style="mask-type:luminance" maskUnits="userSpaceOnUse" x="0" y="13" width="129" height="107">
<path d="M0.997253 69.3121C0.997253 86.0522 14.5306 99.6178 31.2253 99.6178C32.3138 99.6178 33.3879 99.5583 34.4491 99.4458C39.8772 110.999 51.5926 119 65.1757 119C82.2904 119 96.4394 106.303 98.7799 89.7907C100.697 90.3581 102.722 90.6683 104.822 90.6683C116.585 90.6683 126.121 81.1065 126.121 69.3121C126.121 65.7021 125.223 62.3043 123.647 59.3243C126.715 56.5019 128.65 52.4611 128.65 47.9575C128.65 39.4339 121.759 32.5241 113.259 32.5241C111.953 32.5241 110.694 32.7026 109.482 33.0112C104.82 23.565 94.1533 16.9591 81.7309 16.9591C73.5727 16.9591 66.1728 19.8136 60.7303 24.4443C56.0669 17.5409 48.1812 13.0002 39.2375 13.0002C24.9123 13.0002 13.2994 24.6436 13.2994 39.0064C13.2994 40.8918 13.503 42.7257 13.8829 44.497C6.09509 49.9779 0.997253 59.0479 0.997253 69.3121Z" fill="white"/>
</mask>
<g mask="url(#mask0_1_453)">
<path d="M0.997253 69.3121C0.997253 86.0522 14.5306 99.6178 31.2253 99.6178C32.3138 99.6178 33.3879 99.5583 34.4491 99.4458C39.8772 110.999 51.5926 119 65.1757 119C82.2904 119 96.4394 106.303 98.7799 89.7907C100.697 90.3581 102.722 90.6683 104.822 90.6683C116.585 90.6683 126.121 81.1065 126.121 69.3121C126.121 65.7021 125.223 62.3043 123.647 59.3243C126.715 56.5019 128.65 52.4611 128.65 47.9575C128.65 39.4339 121.759 32.5241 113.259 32.5241C111.953 32.5241 110.694 32.7026 109.482 33.0112C104.82 23.565 94.1533 16.9591 81.7309 16.9591C73.5727 16.9591 66.1728 19.8136 60.7303 24.4443C56.0669 17.5409 48.1812 13.0002 39.2375 13.0002C24.9123 13.0002 13.2994 24.6436 13.2994 39.0064C13.2994 40.8918 13.503 42.7257 13.8829 44.497C6.09509 49.9779 0.997253 59.0479 0.997253 69.3121Z" fill="#ECF9FF"/>
</g>
<mask id="mask1_1_453" style="mask-type:luminance" maskUnits="userSpaceOnUse" x="99" y="7" width="12" height="10">
<path d="M99.5144 11.8681C99.5144 9.2516 102.056 7.13086 105.191 7.13086C108.327 7.13086 110.867 9.2516 110.867 11.8681C110.867 14.4839 108.327 16.6038 105.191 16.6038C102.056 16.6038 99.5144 14.4839 99.5144 11.8681Z" fill="white"/>
</mask>
<g mask="url(#mask1_1_453)">
<path d="M99.5144 11.8681C99.5144 9.2516 102.056 7.13086 105.191 7.13086C108.327 7.13086 110.867 9.2516 110.867 11.8681C110.867 14.4839 108.327 16.6038 105.191 16.6038C102.056 16.6038 99.5144 14.4839 99.5144 11.8681Z" fill="#ECF9FF"/>
</g>
<mask id="mask2_1_453" style="mask-type:luminance" maskUnits="userSpaceOnUse" x="108" y="0" width="6" height="6">
<path d="M108.226 2.75764C108.226 1.47975 109.518 0.443359 111.111 0.443359C112.705 0.443359 113.996 1.47975 113.996 2.75764C113.996 4.03632 112.705 5.07269 111.111 5.07269C109.518 5.07269 108.226 4.03632 108.226 2.75764Z" fill="white"/>
</mask>
<g mask="url(#mask2_1_453)">
<path d="M108.226 2.75764C108.226 1.47975 109.518 0.443359 111.111 0.443359C112.705 0.443359 113.996 1.47975 113.996 2.75764C113.996 4.03632 112.705 5.07269 111.111 5.07269C109.518 5.07269 108.226 4.03632 108.226 2.75764Z" fill="#ECF9FF"/>
</g>
</svg>
