<svg width="146" height="139" viewBox="0 0 146 139" fill="none" xmlns="http://www.w3.org/2000/svg">
<mask id="mask0_1_431" style="mask-type:luminance" maskUnits="userSpaceOnUse" x="0" y="-1" width="146" height="122">
<path d="M146 56.5368C146 37.4891 130.522 22.0534 111.427 22.0534C110.183 22.0534 108.954 22.1211 107.74 22.2491C101.532 9.10316 88.1328 -0.000946045 72.5976 -0.000946045C53.0231 -0.000946045 36.8406 14.4471 34.1636 33.2351C31.9708 32.5895 29.6551 32.2366 27.2532 32.2366C13.7989 32.2366 2.89327 43.1165 2.89327 56.5368C2.89327 60.6444 3.92002 64.5106 5.72236 67.9014C2.21303 71.1129 0 75.7107 0 80.8352C0 90.5337 7.88223 98.396 17.6035 98.396C19.0978 98.396 20.5371 98.193 21.9232 97.8419C27.255 108.59 39.4551 116.107 53.663 116.107C62.9937 116.107 71.4571 112.859 77.6819 107.59C83.0155 115.445 92.0345 120.611 102.264 120.611C118.648 120.611 131.93 107.363 131.93 91.0202C131.93 88.8749 131.697 86.7881 131.262 84.7727C140.169 78.5363 146 68.216 146 56.5368Z" fill="white"/>
</mask>
<g mask="url(#mask0_1_431)">
<path d="M146 56.5368C146 37.4891 130.522 22.0534 111.427 22.0534C110.183 22.0534 108.954 22.1211 107.74 22.2491C101.532 9.10316 88.1328 -0.000946045 72.5976 -0.000946045C53.0231 -0.000946045 36.8406 14.4471 34.1636 33.2351C31.9708 32.5895 29.6551 32.2366 27.2532 32.2366C13.7989 32.2366 2.89327 43.1165 2.89327 56.5368C2.89327 60.6444 3.92002 64.5106 5.72236 67.9014C2.21303 71.1129 0 75.7107 0 80.8352C0 90.5337 7.88223 98.396 17.6035 98.396C19.0978 98.396 20.5371 98.193 21.9232 97.8419C27.255 108.59 39.4551 116.107 53.663 116.107C62.9937 116.107 71.4571 112.859 77.6819 107.59C83.0155 115.445 92.0345 120.611 102.264 120.611C118.648 120.611 131.93 107.363 131.93 91.0202C131.93 88.8749 131.697 86.7881 131.262 84.7727C140.169 78.5363 146 68.216 146 56.5368Z" fill="#ECF9FF"/>
</g>
<mask id="mask1_1_431" style="mask-type:luminance" maskUnits="userSpaceOnUse" x="31" y="120" width="14" height="12">
<path d="M44.6642 126C44.6642 128.978 41.757 131.391 38.1719 131.391C34.5851 131.391 31.6797 128.978 31.6797 126C31.6797 123.024 34.5851 120.612 38.1719 120.612C41.757 120.612 44.6642 123.024 44.6642 126Z" fill="white"/>
</mask>
<g mask="url(#mask1_1_431)">
<path d="M44.6642 126C44.6642 128.978 41.757 131.391 38.1719 131.391C34.5851 131.391 31.6797 128.978 31.6797 126C31.6797 123.024 34.5851 120.612 38.1719 120.612C41.757 120.612 44.6642 123.024 44.6642 126Z" fill="#ECF9FF"/>
</g>
<mask id="mask2_1_431" style="mask-type:luminance" maskUnits="userSpaceOnUse" x="28" y="133" width="7" height="6">
<path d="M34.7115 136.367C34.7115 137.821 33.2337 139 31.4111 139C29.5884 139 28.1116 137.821 28.1116 136.367C28.1116 134.912 29.5884 133.733 31.4111 133.733C33.2337 133.733 34.7115 134.912 34.7115 136.367Z" fill="white"/>
</mask>
<g mask="url(#mask2_1_431)">
<path d="M34.7115 136.367C34.7115 137.821 33.2337 139 31.4111 139C29.5884 139 28.1116 137.821 28.1116 136.367C28.1116 134.912 29.5884 133.733 31.4111 133.733C33.2337 133.733 34.7115 134.912 34.7115 136.367Z" fill="#ECF9FF"/>
</g>
<path d="M46.7911 33.356H51.3391V29.516H52.3831V38H51.3391V34.316H46.7911V38H45.7471V29.516H46.7911V33.356ZM55.0179 35.216C55.0419 35.496 55.0979 35.756 55.1859 35.996C55.2819 36.228 55.4099 36.432 55.5699 36.608C55.7299 36.784 55.9259 36.924 56.1579 37.028C56.3979 37.124 56.6739 37.172 56.9859 37.172C57.1379 37.172 57.2939 37.16 57.4539 37.136C57.6219 37.104 57.7779 37.056 57.9219 36.992C58.0659 36.92 58.1939 36.828 58.3059 36.716C58.4179 36.604 58.5019 36.468 58.5579 36.308H59.6019C59.5299 36.612 59.4059 36.876 59.2299 37.1C59.0619 37.324 58.8579 37.508 58.6179 37.652C58.3859 37.796 58.1259 37.904 57.8379 37.976C57.5499 38.04 57.2579 38.072 56.9619 38.072C56.4579 38.072 56.0179 37.992 55.6419 37.832C55.2739 37.672 54.9659 37.452 54.7179 37.172C54.4699 36.884 54.2859 36.544 54.1659 36.152C54.0459 35.752 53.9859 35.316 53.9859 34.844C53.9859 34.372 54.0499 33.94 54.1779 33.548C54.3139 33.148 54.5059 32.804 54.7539 32.516C55.0019 32.228 55.3059 32.004 55.6659 31.844C56.0259 31.684 56.4539 31.604 56.9499 31.604C57.4539 31.604 57.8899 31.704 58.2579 31.904C58.6259 32.104 58.9219 32.368 59.1459 32.696C59.3699 33.016 59.5259 33.364 59.6139 33.74C59.7099 34.116 59.7499 34.464 59.7339 34.784C59.7339 34.856 59.7299 34.928 59.7219 35C59.7219 35.072 59.7179 35.144 59.7099 35.216H55.0179ZM58.7019 34.328C58.6859 33.792 58.5179 33.356 58.1979 33.02C57.8779 32.684 57.4499 32.516 56.9139 32.516C56.6179 32.516 56.3579 32.564 56.1339 32.66C55.9099 32.756 55.7219 32.888 55.5699 33.056C55.4179 33.224 55.2979 33.42 55.2099 33.644C55.1219 33.86 55.0659 34.088 55.0419 34.328H58.7019ZM63.8048 38.072C63.3008 38.072 62.8648 37.992 62.4968 37.832C62.1288 37.672 61.8248 37.448 61.5848 37.16C61.3448 36.872 61.1648 36.532 61.0448 36.14C60.9248 35.748 60.8648 35.32 60.8648 34.856C60.8648 34.408 60.9288 33.988 61.0568 33.596C61.1848 33.196 61.3728 32.852 61.6208 32.564C61.8688 32.268 62.1808 32.036 62.5568 31.868C62.9328 31.692 63.3888 31.604 63.9248 31.604C64.2448 31.604 64.5288 31.64 64.7768 31.712C65.0248 31.776 65.2568 31.884 65.4728 32.036C65.6968 32.18 65.8888 32.372 66.0488 32.612C66.2088 32.852 66.3248 33.144 66.3968 33.488H65.3528C65.2328 33.136 65.0408 32.884 64.7768 32.732C64.5208 32.58 64.2168 32.508 63.8648 32.516C63.5208 32.516 63.2168 32.584 62.9528 32.72C62.6968 32.848 62.4888 33.02 62.3288 33.236C62.1768 33.452 62.0648 33.704 61.9928 33.992C61.9208 34.272 61.8848 34.56 61.8848 34.856C61.8848 35.168 61.9208 35.464 61.9928 35.744C62.0728 36.024 62.1888 36.272 62.3408 36.488C62.5008 36.696 62.7048 36.864 62.9528 36.992C63.2008 37.112 63.4968 37.172 63.8408 37.172C64.0088 37.172 64.1728 37.156 64.3328 37.124C64.5008 37.092 64.6528 37.04 64.7888 36.968C64.9328 36.888 65.0568 36.784 65.1608 36.656C65.2648 36.528 65.3408 36.372 65.3888 36.188H66.4448C66.3808 36.516 66.2648 36.8 66.0968 37.04C65.9368 37.272 65.7368 37.468 65.4968 37.628C65.2568 37.78 64.9928 37.892 64.7048 37.964C64.4168 38.036 64.1168 38.072 63.8048 38.072ZM67.7376 38V31.676H68.7576V34.4H69.8616L71.7336 31.676H72.8976L70.7856 34.688L73.0776 38H71.8776L69.9816 35.288H68.7576V38H67.7376ZM76.6271 31.604C77.1311 31.604 77.5671 31.684 77.9351 31.844C78.3031 32.004 78.6111 32.228 78.8591 32.516C79.1151 32.804 79.3031 33.148 79.4231 33.548C79.5511 33.94 79.6151 34.372 79.6151 34.844C79.6151 35.316 79.5511 35.752 79.4231 36.152C79.3031 36.544 79.1151 36.884 78.8591 37.172C78.6111 37.452 78.2991 37.672 77.9231 37.832C77.5471 37.992 77.1071 38.072 76.6031 38.072C76.0991 38.072 75.6591 37.992 75.2831 37.832C74.9151 37.672 74.6031 37.452 74.3471 37.172C74.0991 36.884 73.9111 36.544 73.7831 36.152C73.6631 35.752 73.6031 35.316 73.6031 34.844C73.6031 34.372 73.6631 33.94 73.7831 33.548C73.9111 33.148 74.0991 32.804 74.3471 32.516C74.6031 32.228 74.9191 32.004 75.2951 31.844C75.6711 31.684 76.1151 31.604 76.6271 31.604ZM76.6031 37.172C76.9471 37.172 77.2431 37.112 77.4911 36.992C77.7471 36.872 77.9551 36.708 78.1151 36.5C78.2831 36.284 78.4031 36.036 78.4751 35.756C78.5551 35.476 78.5951 35.172 78.5951 34.844C78.5951 34.524 78.5551 34.224 78.4751 33.944C78.4031 33.656 78.2831 33.408 78.1151 33.2C77.9551 32.984 77.7471 32.816 77.4911 32.696C77.2431 32.576 76.9471 32.516 76.6031 32.516C76.2591 32.516 75.9631 32.576 75.7151 32.696C75.4671 32.816 75.2591 32.984 75.0911 33.2C74.9311 33.408 74.8111 33.656 74.7311 33.944C74.6591 34.224 74.6231 34.524 74.6231 34.844C74.6231 35.172 74.6591 35.476 74.7311 35.756C74.8111 36.036 74.9311 36.284 75.0911 36.5C75.2591 36.708 75.4671 36.872 75.7151 36.992C75.9631 37.112 76.2591 37.172 76.6031 37.172ZM81.5092 35.036C81.5492 34.46 81.5772 33.9 81.5932 33.356C81.6172 32.812 81.6332 32.252 81.6412 31.676H86.0332V38H85.0132V32.576H82.6372L82.5292 35.06C82.5132 35.38 82.4772 35.74 82.4212 36.14C82.3652 36.54 82.2492 36.904 82.0732 37.232C81.9372 37.464 81.7532 37.652 81.5212 37.796C81.2892 37.94 81.0212 38.012 80.7172 38.012H80.3452V37.112C80.6652 37.112 80.9212 36.976 81.1132 36.704C81.2252 36.544 81.3132 36.312 81.3772 36.008C81.4412 35.704 81.4852 35.38 81.5092 35.036ZM87.636 31.676H88.68V34.088H90.072C90.432 34.088 90.764 34.116 91.068 34.172C91.372 34.22 91.636 34.324 91.86 34.484C92.076 34.644 92.24 34.848 92.352 35.096C92.472 35.336 92.532 35.636 92.532 35.996C92.524 36.356 92.46 36.656 92.34 36.896C92.22 37.128 92.068 37.324 91.884 37.484C91.668 37.668 91.396 37.8 91.068 37.88C90.748 37.96 90.42 38 90.084 38H87.636V31.676ZM89.28 37.112C89.584 37.112 89.888 37.108 90.192 37.1C90.496 37.084 90.76 37.02 90.984 36.908C91.136 36.844 91.256 36.736 91.344 36.584C91.44 36.424 91.492 36.24 91.5 36.032C91.5 35.784 91.448 35.588 91.344 35.444C91.248 35.3 91.12 35.196 90.96 35.132C90.808 35.06 90.636 35.016 90.444 35C90.252 34.984 90.064 34.976 89.88 34.976H88.68V37.112H89.28ZM93.8587 38V31.676H94.8787V34.4H95.9827L97.8547 31.676H99.0187L96.9067 34.688L99.1987 38H97.9987L96.1027 35.288H94.8787V38H93.8587ZM102.748 31.604C103.252 31.604 103.688 31.684 104.056 31.844C104.424 32.004 104.732 32.228 104.98 32.516C105.236 32.804 105.424 33.148 105.544 33.548C105.672 33.94 105.736 34.372 105.736 34.844C105.736 35.316 105.672 35.752 105.544 36.152C105.424 36.544 105.236 36.884 104.98 37.172C104.732 37.452 104.42 37.672 104.044 37.832C103.668 37.992 103.228 38.072 102.724 38.072C102.22 38.072 101.78 37.992 101.404 37.832C101.036 37.672 100.724 37.452 100.468 37.172C100.22 36.884 100.032 36.544 99.9042 36.152C99.7842 35.752 99.7242 35.316 99.7242 34.844C99.7242 34.372 99.7842 33.94 99.9042 33.548C100.032 33.148 100.22 32.804 100.468 32.516C100.724 32.228 101.04 32.004 101.416 31.844C101.792 31.684 102.236 31.604 102.748 31.604ZM102.724 37.172C103.068 37.172 103.364 37.112 103.612 36.992C103.868 36.872 104.076 36.708 104.236 36.5C104.404 36.284 104.524 36.036 104.596 35.756C104.676 35.476 104.716 35.172 104.716 34.844C104.716 34.524 104.676 34.224 104.596 33.944C104.524 33.656 104.404 33.408 104.236 33.2C104.076 32.984 103.868 32.816 103.612 32.696C103.364 32.576 103.068 32.516 102.724 32.516C102.38 32.516 102.084 32.576 101.836 32.696C101.588 32.816 101.38 32.984 101.212 33.2C101.052 33.408 100.932 33.656 100.852 33.944C100.78 34.224 100.744 34.524 100.744 34.844C100.744 35.172 100.78 35.476 100.852 35.756C100.932 36.036 101.052 36.284 101.212 36.5C101.38 36.708 101.588 36.872 101.836 36.992C102.084 37.112 102.38 37.172 102.724 37.172ZM36.2194 46.676H37.2394V48.092C37.2394 48.372 37.2554 48.62 37.2874 48.836C37.3274 49.044 37.3994 49.22 37.5034 49.364C37.6074 49.508 37.7554 49.62 37.9474 49.7C38.1394 49.772 38.3914 49.808 38.7034 49.808C38.9434 49.808 39.1954 49.796 39.4594 49.772C39.7314 49.748 39.9834 49.712 40.2154 49.664V46.676H41.2354V53H40.2154V50.564C39.9114 50.62 39.6154 50.66 39.3274 50.684C39.0474 50.7 38.7954 50.708 38.5714 50.708C38.1234 50.708 37.7474 50.656 37.4434 50.552C37.1474 50.448 36.9074 50.292 36.7234 50.084C36.5394 49.868 36.4074 49.604 36.3274 49.292C36.2554 48.972 36.2194 48.596 36.2194 48.164V46.676ZM43.639 50.216C43.663 50.496 43.719 50.756 43.807 50.996C43.903 51.228 44.031 51.432 44.191 51.608C44.351 51.784 44.547 51.924 44.779 52.028C45.019 52.124 45.295 52.172 45.607 52.172C45.759 52.172 45.915 52.16 46.075 52.136C46.243 52.104 46.399 52.056 46.543 51.992C46.687 51.92 46.815 51.828 46.927 51.716C47.039 51.604 47.123 51.468 47.179 51.308H48.223C48.151 51.612 48.027 51.876 47.851 52.1C47.683 52.324 47.479 52.508 47.239 52.652C47.007 52.796 46.747 52.904 46.459 52.976C46.171 53.04 45.879 53.072 45.583 53.072C45.079 53.072 44.639 52.992 44.263 52.832C43.895 52.672 43.587 52.452 43.339 52.172C43.091 51.884 42.907 51.544 42.787 51.152C42.667 50.752 42.607 50.316 42.607 49.844C42.607 49.372 42.671 48.94 42.799 48.548C42.935 48.148 43.127 47.804 43.375 47.516C43.623 47.228 43.927 47.004 44.287 46.844C44.647 46.684 45.075 46.604 45.571 46.604C46.075 46.604 46.511 46.704 46.879 46.904C47.247 47.104 47.543 47.368 47.767 47.696C47.991 48.016 48.147 48.364 48.235 48.74C48.331 49.116 48.371 49.464 48.355 49.784C48.355 49.856 48.351 49.928 48.343 50C48.343 50.072 48.339 50.144 48.331 50.216H43.639ZM47.323 49.328C47.307 48.792 47.139 48.356 46.819 48.02C46.499 47.684 46.071 47.516 45.535 47.516C45.239 47.516 44.979 47.564 44.755 47.66C44.531 47.756 44.343 47.888 44.191 48.056C44.039 48.224 43.919 48.42 43.831 48.644C43.743 48.86 43.687 49.088 43.663 49.328H47.323ZM49.7259 46.676H51.0939L53.1459 49.844L55.1619 46.676H56.5059V53H55.4979V47.804L53.2659 51.38H52.9779L50.7339 47.804V53H49.7259V46.676ZM60.9005 46.604C61.4045 46.604 61.8405 46.684 62.2085 46.844C62.5765 47.004 62.8845 47.228 63.1325 47.516C63.3885 47.804 63.5765 48.148 63.6965 48.548C63.8245 48.94 63.8885 49.372 63.8885 49.844C63.8885 50.316 63.8245 50.752 63.6965 51.152C63.5765 51.544 63.3885 51.884 63.1325 52.172C62.8845 52.452 62.5725 52.672 62.1965 52.832C61.8205 52.992 61.3805 53.072 60.8765 53.072C60.3725 53.072 59.9325 52.992 59.5565 52.832C59.1885 52.672 58.8765 52.452 58.6205 52.172C58.3725 51.884 58.1845 51.544 58.0565 51.152C57.9365 50.752 57.8765 50.316 57.8765 49.844C57.8765 49.372 57.9365 48.94 58.0565 48.548C58.1845 48.148 58.3725 47.804 58.6205 47.516C58.8765 47.228 59.1925 47.004 59.5685 46.844C59.9445 46.684 60.3885 46.604 60.9005 46.604ZM60.8765 52.172C61.2205 52.172 61.5165 52.112 61.7645 51.992C62.0205 51.872 62.2285 51.708 62.3885 51.5C62.5565 51.284 62.6765 51.036 62.7485 50.756C62.8285 50.476 62.8685 50.172 62.8685 49.844C62.8685 49.524 62.8285 49.224 62.7485 48.944C62.6765 48.656 62.5565 48.408 62.3885 48.2C62.2285 47.984 62.0205 47.816 61.7645 47.696C61.5165 47.576 61.2205 47.516 60.8765 47.516C60.5325 47.516 60.2365 47.576 59.9885 47.696C59.7405 47.816 59.5325 47.984 59.3645 48.2C59.2045 48.408 59.0845 48.656 59.0045 48.944C58.9325 49.224 58.8965 49.524 58.8965 49.844C58.8965 50.172 58.9325 50.476 59.0045 50.756C59.0845 51.036 59.2045 51.284 59.3645 51.5C59.5325 51.708 59.7405 51.872 59.9885 51.992C60.2365 52.112 60.5325 52.172 60.8765 52.172ZM65.8326 48.068C65.8406 47.836 65.8446 47.604 65.8446 47.372C65.8446 47.14 65.8446 46.908 65.8446 46.676H70.3326V52.112H71.1606V54.944H70.1766V53H65.5566V54.944H64.5726V52.112C64.8926 52.112 65.1446 51.968 65.3286 51.68C65.4406 51.52 65.5286 51.292 65.5926 50.996C65.6566 50.692 65.7046 50.372 65.7366 50.036C65.7766 49.668 65.8006 49.304 65.8086 48.944C65.8246 48.576 65.8326 48.284 65.8326 48.068ZM69.3126 47.576H66.8166C66.8086 47.912 66.8006 48.288 66.7926 48.704C66.7846 49.12 66.7686 49.508 66.7446 49.868C66.7366 50.028 66.7246 50.204 66.7086 50.396C66.6926 50.58 66.6646 50.772 66.6246 50.972C66.5926 51.164 66.5406 51.36 66.4686 51.56C66.4046 51.76 66.3126 51.944 66.1926 52.112H69.3126V47.576ZM76.3899 52.196C76.2539 52.38 76.0979 52.528 75.9219 52.64C75.7459 52.752 75.5619 52.84 75.3699 52.904C75.1859 52.968 74.9979 53.012 74.8059 53.036C74.6219 53.06 74.4379 53.072 74.2539 53.072C73.9579 53.072 73.6779 53.036 73.4139 52.964C73.1499 52.892 72.9099 52.776 72.6939 52.616C72.4859 52.456 72.3179 52.256 72.1899 52.016C72.0699 51.776 72.0099 51.504 72.0099 51.2C72.0099 50.84 72.0739 50.54 72.2019 50.3C72.3379 50.052 72.5179 49.852 72.7419 49.7C72.9659 49.548 73.2219 49.444 73.5099 49.388C73.8059 49.324 74.1179 49.292 74.4459 49.292H76.3059C76.3059 48.756 76.1899 48.332 75.9579 48.02C75.7259 47.7 75.3339 47.532 74.7819 47.516C74.4459 47.516 74.1499 47.572 73.8939 47.684C73.6379 47.796 73.4619 47.98 73.3659 48.236H72.2739C72.3299 47.948 72.4419 47.704 72.6099 47.504C72.7779 47.296 72.9779 47.128 73.2099 47C73.4419 46.864 73.6939 46.764 73.9659 46.7C74.2379 46.636 74.5099 46.604 74.7819 46.604C75.2539 46.604 75.6499 46.684 75.9699 46.844C76.2979 46.996 76.5619 47.2 76.7619 47.456C76.9619 47.704 77.1019 48.008 77.1819 48.368C77.2619 48.728 77.3019 49.132 77.3019 49.58V53H76.4499L76.3899 52.196ZM75.1899 50.144C74.9979 50.144 74.7739 50.148 74.5179 50.156C74.2699 50.156 74.0299 50.18 73.7979 50.228C73.5659 50.276 73.3779 50.376 73.2339 50.528C73.0979 50.68 73.0299 50.88 73.0299 51.128C73.0299 51.312 73.0659 51.468 73.1379 51.596C73.2099 51.724 73.3059 51.832 73.4259 51.92C73.5539 52.008 73.6979 52.072 73.8579 52.112C74.0179 52.152 74.1819 52.172 74.3499 52.172C74.9499 52.172 75.4219 52.028 75.7659 51.74C76.1179 51.444 76.2979 51.016 76.3059 50.456V50.144H75.1899ZM78.8821 53V46.676H79.9021V49.448H83.0701V46.676H84.0901V53H83.0701V50.348H79.9021V53H78.8821ZM88.4864 46.604C88.9904 46.604 89.4264 46.684 89.7944 46.844C90.1624 47.004 90.4704 47.228 90.7184 47.516C90.9744 47.804 91.1624 48.148 91.2824 48.548C91.4104 48.94 91.4744 49.372 91.4744 49.844C91.4744 50.316 91.4104 50.752 91.2824 51.152C91.1624 51.544 90.9744 51.884 90.7184 52.172C90.4704 52.452 90.1584 52.672 89.7824 52.832C89.4064 52.992 88.9664 53.072 88.4624 53.072C87.9584 53.072 87.5184 52.992 87.1424 52.832C86.7744 52.672 86.4624 52.452 86.2064 52.172C85.9584 51.884 85.7704 51.544 85.6424 51.152C85.5224 50.752 85.4624 50.316 85.4624 49.844C85.4624 49.372 85.5224 48.94 85.6424 48.548C85.7704 48.148 85.9584 47.804 86.2064 47.516C86.4624 47.228 86.7784 47.004 87.1544 46.844C87.5304 46.684 87.9744 46.604 88.4864 46.604ZM88.4624 52.172C88.8064 52.172 89.1024 52.112 89.3504 51.992C89.6064 51.872 89.8144 51.708 89.9744 51.5C90.1424 51.284 90.2624 51.036 90.3344 50.756C90.4144 50.476 90.4544 50.172 90.4544 49.844C90.4544 49.524 90.4144 49.224 90.3344 48.944C90.2624 48.656 90.1424 48.408 89.9744 48.2C89.8144 47.984 89.6064 47.816 89.3504 47.696C89.1024 47.576 88.8064 47.516 88.4624 47.516C88.1184 47.516 87.8224 47.576 87.5744 47.696C87.3264 47.816 87.1184 47.984 86.9504 48.2C86.7904 48.408 86.6704 48.656 86.5904 48.944C86.5184 49.224 86.4824 49.524 86.4824 49.844C86.4824 50.172 86.5184 50.476 86.5904 50.756C86.6704 51.036 86.7904 51.284 86.9504 51.5C87.1184 51.708 87.3264 51.872 87.5744 51.992C87.8224 52.112 88.1184 52.172 88.4624 52.172ZM92.8392 46.676H95.2872C95.6952 46.676 96.0432 46.704 96.3312 46.76C96.6272 46.816 96.8752 46.916 97.0752 47.06C97.2512 47.18 97.3872 47.34 97.4832 47.54C97.5872 47.74 97.6392 47.976 97.6392 48.248C97.6392 48.88 97.3552 49.332 96.7872 49.604C97.2192 49.7 97.5312 49.888 97.7232 50.168C97.9152 50.448 98.0112 50.768 98.0112 51.128C98.0032 51.464 97.9472 51.74 97.8432 51.956C97.7392 52.164 97.5912 52.348 97.3992 52.508C97.2152 52.66 96.9872 52.78 96.7152 52.868C96.4432 52.956 96.1352 53 95.7912 53H92.8392V46.676ZM93.8832 47.576V49.376H94.7592C94.9592 49.376 95.1632 49.372 95.3712 49.364C95.5792 49.348 95.7632 49.312 95.9232 49.256C96.1232 49.192 96.2912 49.088 96.4272 48.944C96.5632 48.8 96.6352 48.628 96.6432 48.428C96.6432 48.196 96.5912 48.028 96.4872 47.924C96.3912 47.812 96.2712 47.732 96.1272 47.684C95.9832 47.628 95.8272 47.596 95.6592 47.588C95.4912 47.58 95.3352 47.576 95.1912 47.576H93.8832ZM93.8832 52.112H95.5512C95.7352 52.112 95.9112 52.1 96.0792 52.076C96.2552 52.052 96.4072 52.008 96.5352 51.944C96.6632 51.872 96.7672 51.776 96.8472 51.656C96.9272 51.536 96.9712 51.384 96.9792 51.2C96.9792 50.96 96.9232 50.772 96.8112 50.636C96.6992 50.492 96.5472 50.388 96.3552 50.324C96.1952 50.276 96.0152 50.248 95.8152 50.24C95.6152 50.232 95.4072 50.228 95.1912 50.228L93.8832 50.24V52.112ZM102.636 53V46.676H103.656V49.448H106.824V46.676H107.844V53H106.824V50.348H103.656V53H102.636ZM113.62 52.196C113.484 52.38 113.328 52.528 113.152 52.64C112.976 52.752 112.792 52.84 112.6 52.904C112.416 52.968 112.228 53.012 112.036 53.036C111.852 53.06 111.668 53.072 111.484 53.072C111.188 53.072 110.908 53.036 110.644 52.964C110.38 52.892 110.14 52.776 109.924 52.616C109.716 52.456 109.548 52.256 109.42 52.016C109.3 51.776 109.24 51.504 109.24 51.2C109.24 50.84 109.304 50.54 109.432 50.3C109.568 50.052 109.748 49.852 109.972 49.7C110.196 49.548 110.452 49.444 110.74 49.388C111.036 49.324 111.348 49.292 111.676 49.292H113.536C113.536 48.756 113.42 48.332 113.188 48.02C112.956 47.7 112.564 47.532 112.012 47.516C111.676 47.516 111.38 47.572 111.124 47.684C110.868 47.796 110.692 47.98 110.596 48.236H109.504C109.56 47.948 109.672 47.704 109.84 47.504C110.008 47.296 110.208 47.128 110.44 47C110.672 46.864 110.924 46.764 111.196 46.7C111.468 46.636 111.74 46.604 112.012 46.604C112.484 46.604 112.88 46.684 113.2 46.844C113.528 46.996 113.792 47.2 113.992 47.456C114.192 47.704 114.332 48.008 114.412 48.368C114.492 48.728 114.532 49.132 114.532 49.58V53H113.68L113.62 52.196ZM112.42 50.144C112.228 50.144 112.004 50.148 111.748 50.156C111.5 50.156 111.26 50.18 111.028 50.228C110.796 50.276 110.608 50.376 110.464 50.528C110.328 50.68 110.26 50.88 110.26 51.128C110.26 51.312 110.296 51.468 110.368 51.596C110.44 51.724 110.536 51.832 110.656 51.92C110.784 52.008 110.928 52.072 111.088 52.112C111.248 52.152 111.412 52.172 111.58 52.172C112.18 52.172 112.652 52.028 112.996 51.74C113.348 51.444 113.528 51.016 113.536 50.456V50.144H112.42ZM28.9718 65.588L27.2438 68H26.0918L28.3478 64.772L26.1998 61.676H27.4238L29.0318 64.076L30.5918 61.676H31.7798L29.6438 64.808L31.9358 68H30.7238L28.9718 65.588ZM33.9236 70.28H32.9036V61.676H33.8756L33.9236 62.648C34.1396 62.304 34.4316 62.048 34.7996 61.88C35.1756 61.704 35.5796 61.612 36.0116 61.604C36.4996 61.604 36.9116 61.688 37.2476 61.856C37.5916 62.016 37.8756 62.244 38.0996 62.54C38.3316 62.828 38.5036 63.172 38.6156 63.572C38.7276 63.964 38.7836 64.388 38.7836 64.844C38.7836 65.308 38.7276 65.736 38.6156 66.128C38.5036 66.52 38.3316 66.86 38.0996 67.148C37.8676 67.436 37.5756 67.664 37.2236 67.832C36.8716 67.992 36.4516 68.072 35.9636 68.072C35.4836 68.072 35.0756 67.996 34.7396 67.844C34.4036 67.692 34.1316 67.492 33.9236 67.244V70.28ZM35.8796 67.172C36.2236 67.172 36.5116 67.112 36.7436 66.992C36.9836 66.864 37.1756 66.696 37.3196 66.488C37.4716 66.272 37.5796 66.024 37.6436 65.744C37.7156 65.464 37.7556 65.164 37.7636 64.844C37.7636 64.524 37.7276 64.224 37.6556 63.944C37.5916 63.656 37.4836 63.408 37.3316 63.2C37.1796 62.992 36.9796 62.828 36.7316 62.708C36.4916 62.58 36.1996 62.516 35.8556 62.516C35.4476 62.516 35.0956 62.628 34.7996 62.852C34.5036 63.068 34.2796 63.344 34.1276 63.68C34.0396 63.864 33.9796 64.056 33.9476 64.256C33.9156 64.448 33.8996 64.648 33.8996 64.856C33.8996 65.096 33.9156 65.32 33.9476 65.528C33.9796 65.728 34.0396 65.92 34.1276 66.104C34.2796 66.408 34.4996 66.664 34.7876 66.872C35.0836 67.072 35.4476 67.172 35.8796 67.172ZM44.6469 61.676H45.7989L44.0109 66.656C43.9149 66.912 43.8109 67.204 43.6989 67.532C43.5949 67.852 43.4749 68.172 43.3389 68.492C43.2109 68.82 43.0629 69.128 42.8949 69.416C42.7349 69.704 42.5549 69.936 42.3549 70.112C42.0589 70.376 41.7749 70.54 41.5029 70.604C41.2309 70.676 40.9229 70.712 40.5789 70.712H40.3629V69.74C40.6509 69.74 40.8949 69.708 41.0949 69.644C41.2949 69.588 41.4669 69.496 41.6109 69.368C41.7629 69.24 41.8909 69.08 41.9949 68.888C42.1069 68.696 42.2189 68.468 42.3309 68.204L39.4989 61.676H40.6989L42.8949 67.004L44.6469 61.676ZM46.7435 68V61.676H51.9875V68H50.9675V62.576H47.7635V68H46.7435ZM53.5989 68V61.676H54.6189V64.4H55.7229L57.5949 61.676H58.7589L56.6469 64.688L58.9389 68H57.7389L55.8429 65.288H54.6189V68H53.5989ZM60.8176 68H59.8216V61.676H60.8416V66.524C60.8976 66.412 60.9736 66.292 61.0696 66.164C61.1656 66.028 61.2416 65.924 61.2976 65.852L64.3576 61.676H65.3656V68H64.3456V63.152C64.2816 63.272 64.2096 63.388 64.1296 63.5C64.0576 63.604 63.9896 63.696 63.9256 63.776L60.8176 68ZM69.214 65.588L67.486 68H66.334L68.59 64.772L66.442 61.676H67.666L69.274 64.076L70.834 61.676H72.022L69.886 64.808L72.178 68H70.966L69.214 65.588ZM76.3802 68V61.676H81.6242V68H80.6042V62.576H77.4002V68H76.3802ZM83.8236 65.036C83.8636 64.46 83.8916 63.9 83.9076 63.356C83.9316 62.812 83.9476 62.252 83.9556 61.676H88.3476V68H87.3276V62.576H84.9516L84.8436 65.06C84.8276 65.38 84.7916 65.74 84.7356 66.14C84.6796 66.54 84.5636 66.904 84.3876 67.232C84.2516 67.464 84.0676 67.652 83.8356 67.796C83.6036 67.94 83.3356 68.012 83.0316 68.012H82.6596V67.112C82.9796 67.112 83.2356 66.976 83.4276 66.704C83.5396 66.544 83.6276 66.312 83.6916 66.008C83.7556 65.704 83.7996 65.38 83.8236 65.036ZM90.7425 65.216C90.7665 65.496 90.8225 65.756 90.9105 65.996C91.0065 66.228 91.1345 66.432 91.2945 66.608C91.4545 66.784 91.6505 66.924 91.8825 67.028C92.1225 67.124 92.3985 67.172 92.7105 67.172C92.8625 67.172 93.0185 67.16 93.1785 67.136C93.3465 67.104 93.5025 67.056 93.6465 66.992C93.7905 66.92 93.9185 66.828 94.0305 66.716C94.1425 66.604 94.2265 66.468 94.2825 66.308H95.3265C95.2545 66.612 95.1305 66.876 94.9545 67.1C94.7865 67.324 94.5825 67.508 94.3425 67.652C94.1105 67.796 93.8505 67.904 93.5625 67.976C93.2745 68.04 92.9825 68.072 92.6865 68.072C92.1825 68.072 91.7425 67.992 91.3665 67.832C90.9985 67.672 90.6905 67.452 90.4425 67.172C90.1945 66.884 90.0105 66.544 89.8905 66.152C89.7705 65.752 89.7105 65.316 89.7105 64.844C89.7105 64.372 89.7745 63.94 89.9025 63.548C90.0385 63.148 90.2305 62.804 90.4785 62.516C90.7265 62.228 91.0305 62.004 91.3905 61.844C91.7505 61.684 92.1785 61.604 92.6745 61.604C93.1785 61.604 93.6145 61.704 93.9825 61.904C94.3505 62.104 94.6465 62.368 94.8705 62.696C95.0945 63.016 95.2505 63.364 95.3385 63.74C95.4345 64.116 95.4745 64.464 95.4585 64.784C95.4585 64.856 95.4545 64.928 95.4465 65C95.4465 65.072 95.4425 65.144 95.4345 65.216H90.7425ZM94.4265 64.328C94.4105 63.792 94.2425 63.356 93.9225 63.02C93.6025 62.684 93.1745 62.516 92.6385 62.516C92.3425 62.516 92.0825 62.564 91.8585 62.66C91.6345 62.756 91.4465 62.888 91.2945 63.056C91.1425 63.224 91.0225 63.42 90.9345 63.644C90.8465 63.86 90.7905 64.088 90.7665 64.328H94.4265ZM96.5534 61.676H97.5734V63.092C97.5734 63.372 97.5894 63.62 97.6214 63.836C97.6614 64.044 97.7334 64.22 97.8374 64.364C97.9414 64.508 98.0894 64.62 98.2814 64.7C98.4734 64.772 98.7254 64.808 99.0374 64.808C99.2774 64.808 99.5294 64.796 99.7934 64.772C100.065 64.748 100.317 64.712 100.549 64.664V61.676H101.569V68H100.549V65.564C100.245 65.62 99.9494 65.66 99.6614 65.684C99.3814 65.7 99.1294 65.708 98.9054 65.708C98.4574 65.708 98.0814 65.656 97.7774 65.552C97.4814 65.448 97.2414 65.292 97.0574 65.084C96.8734 64.868 96.7414 64.604 96.6614 64.292C96.5894 63.972 96.5534 63.596 96.5534 63.164V61.676ZM107.345 67.196C107.209 67.38 107.053 67.528 106.877 67.64C106.701 67.752 106.517 67.84 106.325 67.904C106.141 67.968 105.953 68.012 105.761 68.036C105.577 68.06 105.393 68.072 105.209 68.072C104.913 68.072 104.633 68.036 104.369 67.964C104.105 67.892 103.865 67.776 103.649 67.616C103.441 67.456 103.273 67.256 103.145 67.016C103.025 66.776 102.965 66.504 102.965 66.2C102.965 65.84 103.029 65.54 103.157 65.3C103.293 65.052 103.473 64.852 103.697 64.7C103.921 64.548 104.177 64.444 104.465 64.388C104.761 64.324 105.073 64.292 105.401 64.292H107.261C107.261 63.756 107.145 63.332 106.913 63.02C106.681 62.7 106.289 62.532 105.737 62.516C105.401 62.516 105.105 62.572 104.849 62.684C104.593 62.796 104.417 62.98 104.321 63.236H103.229C103.285 62.948 103.397 62.704 103.565 62.504C103.733 62.296 103.933 62.128 104.165 62C104.397 61.864 104.649 61.764 104.921 61.7C105.193 61.636 105.465 61.604 105.737 61.604C106.209 61.604 106.605 61.684 106.925 61.844C107.253 61.996 107.517 62.2 107.717 62.456C107.917 62.704 108.057 63.008 108.137 63.368C108.217 63.728 108.257 64.132 108.257 64.58V68H107.405L107.345 67.196ZM106.145 65.144C105.953 65.144 105.729 65.148 105.473 65.156C105.225 65.156 104.985 65.18 104.753 65.228C104.521 65.276 104.333 65.376 104.189 65.528C104.053 65.68 103.985 65.88 103.985 66.128C103.985 66.312 104.021 66.468 104.093 66.596C104.165 66.724 104.261 66.832 104.381 66.92C104.509 67.008 104.653 67.072 104.813 67.112C104.973 67.152 105.137 67.172 105.305 67.172C105.905 67.172 106.377 67.028 106.721 66.74C107.073 66.444 107.253 66.016 107.261 65.456V65.144H106.145ZM112.081 65.588L110.353 68H109.201L111.457 64.772L109.309 61.676H110.533L112.141 64.076L113.701 61.676H114.889L112.753 64.808L115.045 68H113.833L112.081 65.588ZM121.947 68.072C121.443 68.072 121.007 67.992 120.639 67.832C120.271 67.672 119.967 67.448 119.727 67.16C119.487 66.872 119.307 66.532 119.187 66.14C119.067 65.748 119.007 65.32 119.007 64.856C119.007 64.408 119.071 63.988 119.199 63.596C119.327 63.196 119.515 62.852 119.763 62.564C120.011 62.268 120.323 62.036 120.699 61.868C121.075 61.692 121.531 61.604 122.067 61.604C122.387 61.604 122.671 61.64 122.919 61.712C123.167 61.776 123.399 61.884 123.615 62.036C123.839 62.18 124.031 62.372 124.191 62.612C124.351 62.852 124.467 63.144 124.539 63.488H123.495C123.375 63.136 123.183 62.884 122.919 62.732C122.663 62.58 122.359 62.508 122.007 62.516C121.663 62.516 121.359 62.584 121.095 62.72C120.839 62.848 120.631 63.02 120.471 63.236C120.319 63.452 120.207 63.704 120.135 63.992C120.063 64.272 120.027 64.56 120.027 64.856C120.027 65.168 120.063 65.464 120.135 65.744C120.215 66.024 120.331 66.272 120.483 66.488C120.643 66.696 120.847 66.864 121.095 66.992C121.343 67.112 121.639 67.172 121.983 67.172C122.151 67.172 122.315 67.156 122.475 67.124C122.643 67.092 122.795 67.04 122.931 66.968C123.075 66.888 123.199 66.784 123.303 66.656C123.407 66.528 123.483 66.372 123.531 66.188H124.587C124.523 66.516 124.407 66.8 124.239 67.04C124.079 67.272 123.879 67.468 123.639 67.628C123.399 67.78 123.135 67.892 122.847 67.964C122.559 68.036 122.259 68.072 121.947 68.072ZM25.7435 76.676H27.1115L29.1635 79.844L31.1795 76.676H32.5235V83H31.5155V77.804L29.2835 81.38H28.9955L26.7515 77.804V83H25.7435V76.676ZM38.2981 82.196C38.1621 82.38 38.0061 82.528 37.8301 82.64C37.6541 82.752 37.4701 82.84 37.2781 82.904C37.0941 82.968 36.9061 83.012 36.7141 83.036C36.5301 83.06 36.3461 83.072 36.1621 83.072C35.8661 83.072 35.5861 83.036 35.3221 82.964C35.0581 82.892 34.8181 82.776 34.6021 82.616C34.3941 82.456 34.2261 82.256 34.0981 82.016C33.9781 81.776 33.9181 81.504 33.9181 81.2C33.9181 80.84 33.9821 80.54 34.1101 80.3C34.2461 80.052 34.4261 79.852 34.6501 79.7C34.8741 79.548 35.1301 79.444 35.4181 79.388C35.7141 79.324 36.0261 79.292 36.3541 79.292H38.2141C38.2141 78.756 38.0981 78.332 37.8661 78.02C37.6341 77.7 37.2421 77.532 36.6901 77.516C36.3541 77.516 36.0581 77.572 35.8021 77.684C35.5461 77.796 35.3701 77.98 35.2741 78.236H34.1821C34.2381 77.948 34.3501 77.704 34.5181 77.504C34.6861 77.296 34.8861 77.128 35.1181 77C35.3501 76.864 35.6021 76.764 35.8741 76.7C36.1461 76.636 36.4181 76.604 36.6901 76.604C37.1621 76.604 37.5581 76.684 37.8781 76.844C38.2061 76.996 38.4701 77.2 38.6701 77.456C38.8701 77.704 39.0101 78.008 39.0901 78.368C39.1701 78.728 39.2101 79.132 39.2101 79.58V83H38.3581L38.2981 82.196ZM37.0981 80.144C36.9061 80.144 36.6821 80.148 36.4261 80.156C36.1781 80.156 35.9381 80.18 35.7061 80.228C35.4741 80.276 35.2861 80.376 35.1421 80.528C35.0061 80.68 34.9381 80.88 34.9381 81.128C34.9381 81.312 34.9741 81.468 35.0461 81.596C35.1181 81.724 35.2141 81.832 35.3341 81.92C35.4621 82.008 35.6061 82.072 35.7661 82.112C35.9261 82.152 36.0901 82.172 36.2581 82.172C36.8581 82.172 37.3301 82.028 37.6741 81.74C38.0261 81.444 38.2061 81.016 38.2141 80.456V80.144H37.0981ZM45.4583 76.676V77.576H43.2863V83H42.2663V77.576H40.0943V76.676H45.4583ZM47.1605 80.216C47.1845 80.496 47.2405 80.756 47.3285 80.996C47.4245 81.228 47.5525 81.432 47.7125 81.608C47.8725 81.784 48.0685 81.924 48.3005 82.028C48.5405 82.124 48.8165 82.172 49.1285 82.172C49.2805 82.172 49.4365 82.16 49.5965 82.136C49.7645 82.104 49.9205 82.056 50.0645 81.992C50.2085 81.92 50.3365 81.828 50.4485 81.716C50.5605 81.604 50.6445 81.468 50.7005 81.308H51.7445C51.6725 81.612 51.5485 81.876 51.3725 82.1C51.2045 82.324 51.0005 82.508 50.7605 82.652C50.5285 82.796 50.2685 82.904 49.9805 82.976C49.6925 83.04 49.4005 83.072 49.1045 83.072C48.6005 83.072 48.1605 82.992 47.7845 82.832C47.4165 82.672 47.1085 82.452 46.8605 82.172C46.6125 81.884 46.4285 81.544 46.3085 81.152C46.1885 80.752 46.1285 80.316 46.1285 79.844C46.1285 79.372 46.1925 78.94 46.3205 78.548C46.4565 78.148 46.6485 77.804 46.8965 77.516C47.1445 77.228 47.4485 77.004 47.8085 76.844C48.1685 76.684 48.5965 76.604 49.0925 76.604C49.5965 76.604 50.0325 76.704 50.4005 76.904C50.7685 77.104 51.0645 77.368 51.2885 77.696C51.5125 78.016 51.6685 78.364 51.7565 78.74C51.8525 79.116 51.8925 79.464 51.8765 79.784C51.8765 79.856 51.8725 79.928 51.8645 80C51.8645 80.072 51.8605 80.144 51.8525 80.216H47.1605ZM50.8445 79.328C50.8285 78.792 50.6605 78.356 50.3405 78.02C50.0205 77.684 49.5925 77.516 49.0565 77.516C48.7605 77.516 48.5005 77.564 48.2765 77.66C48.0525 77.756 47.8645 77.888 47.7125 78.056C47.5605 78.224 47.4405 78.42 47.3525 78.644C47.2645 78.86 47.2085 79.088 47.1845 79.328H50.8445ZM54.2674 85.28H53.2474V76.676H54.2194L54.2674 77.648C54.4834 77.304 54.7754 77.048 55.1434 76.88C55.5194 76.704 55.9234 76.612 56.3554 76.604C56.8434 76.604 57.2554 76.688 57.5914 76.856C57.9354 77.016 58.2194 77.244 58.4434 77.54C58.6754 77.828 58.8474 78.172 58.9594 78.572C59.0714 78.964 59.1274 79.388 59.1274 79.844C59.1274 80.308 59.0714 80.736 58.9594 81.128C58.8474 81.52 58.6754 81.86 58.4434 82.148C58.2114 82.436 57.9194 82.664 57.5674 82.832C57.2154 82.992 56.7954 83.072 56.3074 83.072C55.8274 83.072 55.4194 82.996 55.0834 82.844C54.7474 82.692 54.4754 82.492 54.2674 82.244V85.28ZM56.2234 82.172C56.5674 82.172 56.8554 82.112 57.0874 81.992C57.3274 81.864 57.5194 81.696 57.6634 81.488C57.8154 81.272 57.9234 81.024 57.9874 80.744C58.0594 80.464 58.0994 80.164 58.1074 79.844C58.1074 79.524 58.0714 79.224 57.9994 78.944C57.9354 78.656 57.8274 78.408 57.6754 78.2C57.5234 77.992 57.3234 77.828 57.0754 77.708C56.8354 77.58 56.5434 77.516 56.1994 77.516C55.7914 77.516 55.4394 77.628 55.1434 77.852C54.8474 78.068 54.6234 78.344 54.4714 78.68C54.3834 78.864 54.3234 79.056 54.2914 79.256C54.2594 79.448 54.2434 79.648 54.2434 79.856C54.2434 80.096 54.2594 80.32 54.2914 80.528C54.3234 80.728 54.3834 80.92 54.4714 81.104C54.6234 81.408 54.8434 81.664 55.1314 81.872C55.4274 82.072 55.7914 82.172 56.2234 82.172ZM61.4387 83H60.4427V76.676H61.4627V81.524C61.5187 81.412 61.5947 81.292 61.6907 81.164C61.7867 81.028 61.8627 80.924 61.9187 80.852L64.9787 76.676H65.9867V83H64.9667V78.152C64.9027 78.272 64.8307 78.388 64.7507 78.5C64.6787 78.604 64.6107 78.696 64.5467 78.776L61.4387 83ZM71.7551 82.196C71.6191 82.38 71.4631 82.528 71.2871 82.64C71.1111 82.752 70.9271 82.84 70.7351 82.904C70.5511 82.968 70.3631 83.012 70.1711 83.036C69.9871 83.06 69.8031 83.072 69.6191 83.072C69.3231 83.072 69.0431 83.036 68.7791 82.964C68.5151 82.892 68.2751 82.776 68.0591 82.616C67.8511 82.456 67.6831 82.256 67.5551 82.016C67.4351 81.776 67.3751 81.504 67.3751 81.2C67.3751 80.84 67.4391 80.54 67.5671 80.3C67.7031 80.052 67.8831 79.852 68.1071 79.7C68.3311 79.548 68.5871 79.444 68.8751 79.388C69.1711 79.324 69.4831 79.292 69.8111 79.292H71.6711C71.6711 78.756 71.5551 78.332 71.3231 78.02C71.0911 77.7 70.6991 77.532 70.1471 77.516C69.8111 77.516 69.5151 77.572 69.2591 77.684C69.0031 77.796 68.8271 77.98 68.7311 78.236H67.6391C67.6951 77.948 67.8071 77.704 67.9751 77.504C68.1431 77.296 68.3431 77.128 68.5751 77C68.8071 76.864 69.0591 76.764 69.3311 76.7C69.6031 76.636 69.8751 76.604 70.1471 76.604C70.6191 76.604 71.0151 76.684 71.3351 76.844C71.6631 76.996 71.9271 77.2 72.1271 77.456C72.3271 77.704 72.4671 78.008 72.5471 78.368C72.6271 78.728 72.6671 79.132 72.6671 79.58V83H71.8151L71.7551 82.196ZM70.5551 80.144C70.3631 80.144 70.1391 80.148 69.8831 80.156C69.6351 80.156 69.3951 80.18 69.1631 80.228C68.9311 80.276 68.7431 80.376 68.5991 80.528C68.4631 80.68 68.3951 80.88 68.3951 81.128C68.3951 81.312 68.4311 81.468 68.5031 81.596C68.5751 81.724 68.6711 81.832 68.7911 81.92C68.9191 82.008 69.0631 82.072 69.2231 82.112C69.3831 82.152 69.5471 82.172 69.7151 82.172C70.3151 82.172 70.7871 82.028 71.1311 81.74C71.4831 81.444 71.6631 81.016 71.6711 80.456V80.144H70.5551ZM74.8354 80.036C74.8754 79.46 74.9034 78.9 74.9194 78.356C74.9434 77.812 74.9594 77.252 74.9674 76.676H79.3594V83H78.3394V77.576H75.9634L75.8554 80.06C75.8394 80.38 75.8034 80.74 75.7474 81.14C75.6914 81.54 75.5754 81.904 75.3994 82.232C75.2634 82.464 75.0794 82.652 74.8474 82.796C74.6154 82.94 74.3474 83.012 74.0434 83.012H73.6714V82.112C73.9914 82.112 74.2474 81.976 74.4394 81.704C74.5514 81.544 74.6394 81.312 74.7034 81.008C74.7674 80.704 74.8114 80.38 74.8354 80.036ZM85.1262 82.196C84.9902 82.38 84.8342 82.528 84.6582 82.64C84.4822 82.752 84.2982 82.84 84.1062 82.904C83.9222 82.968 83.7342 83.012 83.5422 83.036C83.3582 83.06 83.1742 83.072 82.9902 83.072C82.6942 83.072 82.4142 83.036 82.1502 82.964C81.8862 82.892 81.6462 82.776 81.4302 82.616C81.2222 82.456 81.0542 82.256 80.9262 82.016C80.8062 81.776 80.7462 81.504 80.7462 81.2C80.7462 80.84 80.8102 80.54 80.9382 80.3C81.0742 80.052 81.2542 79.852 81.4782 79.7C81.7022 79.548 81.9582 79.444 82.2462 79.388C82.5422 79.324 82.8542 79.292 83.1822 79.292H85.0422C85.0422 78.756 84.9262 78.332 84.6942 78.02C84.4622 77.7 84.0702 77.532 83.5182 77.516C83.1822 77.516 82.8862 77.572 82.6302 77.684C82.3742 77.796 82.1982 77.98 82.1022 78.236H81.0102C81.0662 77.948 81.1782 77.704 81.3462 77.504C81.5142 77.296 81.7142 77.128 81.9462 77C82.1782 76.864 82.4302 76.764 82.7022 76.7C82.9742 76.636 83.2462 76.604 83.5182 76.604C83.9902 76.604 84.3862 76.684 84.7062 76.844C85.0342 76.996 85.2982 77.2 85.4982 77.456C85.6982 77.704 85.8382 78.008 85.9182 78.368C85.9982 78.728 86.0382 79.132 86.0382 79.58V83H85.1862L85.1262 82.196ZM83.9262 80.144C83.7342 80.144 83.5102 80.148 83.2542 80.156C83.0062 80.156 82.7662 80.18 82.5342 80.228C82.3022 80.276 82.1142 80.376 81.9702 80.528C81.8342 80.68 81.7662 80.88 81.7662 81.128C81.7662 81.312 81.8022 81.468 81.8742 81.596C81.9462 81.724 82.0422 81.832 82.1622 81.92C82.2902 82.008 82.4342 82.072 82.5942 82.112C82.7542 82.152 82.9182 82.172 83.0862 82.172C83.6862 82.172 84.1582 82.028 84.5022 81.74C84.8542 81.444 85.0342 81.016 85.0422 80.456V80.144H83.9262ZM87.6185 76.676H88.9865L91.0385 79.844L93.0545 76.676H94.3985V83H93.3905V77.804L91.1585 81.38H90.8705L88.6265 77.804V83H87.6185V76.676ZM97.0051 83H96.0091V76.676H97.0291V81.524C97.0851 81.412 97.1611 81.292 97.2571 81.164C97.3531 81.028 97.4291 80.924 97.4851 80.852L100.545 76.676H101.553V83H100.533V78.152C100.469 78.272 100.397 78.388 100.317 78.5C100.245 78.604 100.177 78.696 100.113 78.776L97.0051 83ZM107.112 78.068C107.12 77.836 107.124 77.604 107.124 77.372C107.124 77.14 107.124 76.908 107.124 76.676H111.612V82.112H112.44V84.944H111.456V83H106.836V84.944H105.852V82.112C106.172 82.112 106.424 81.968 106.608 81.68C106.72 81.52 106.808 81.292 106.872 80.996C106.936 80.692 106.984 80.372 107.016 80.036C107.056 79.668 107.08 79.304 107.088 78.944C107.104 78.576 107.112 78.284 107.112 78.068ZM110.592 77.576H108.096C108.088 77.912 108.08 78.288 108.072 78.704C108.064 79.12 108.048 79.508 108.024 79.868C108.016 80.028 108.004 80.204 107.988 80.396C107.972 80.58 107.944 80.772 107.904 80.972C107.872 81.164 107.82 81.36 107.748 81.56C107.684 81.76 107.592 81.944 107.472 82.112H110.592V77.576ZM114.328 80.036C114.368 79.46 114.396 78.9 114.412 78.356C114.436 77.812 114.452 77.252 114.46 76.676H118.852V83H117.832V77.576H115.456L115.348 80.06C115.332 80.38 115.296 80.74 115.24 81.14C115.184 81.54 115.068 81.904 114.892 82.232C114.756 82.464 114.572 82.652 114.34 82.796C114.108 82.94 113.84 83.012 113.536 83.012H113.164V82.112C113.484 82.112 113.74 81.976 113.932 81.704C114.044 81.544 114.132 81.312 114.196 81.008C114.26 80.704 114.304 80.38 114.328 80.036ZM125.254 83H124.234V80.66H122.782L121.246 83H120.058L121.702 80.504C121.246 80.376 120.89 80.168 120.634 79.88C120.378 79.584 120.242 79.192 120.226 78.704C120.218 78.28 120.282 77.94 120.418 77.684C120.562 77.42 120.75 77.208 120.982 77.048C121.206 76.888 121.466 76.788 121.762 76.748C122.058 76.7 122.374 76.676 122.71 76.676H125.254V83ZM124.234 77.576L122.878 77.564C122.678 77.564 122.474 77.572 122.266 77.588C122.066 77.604 121.886 77.656 121.726 77.744C121.59 77.824 121.478 77.94 121.39 78.092C121.31 78.236 121.266 78.424 121.258 78.656C121.266 78.872 121.318 79.056 121.414 79.208C121.51 79.352 121.646 79.468 121.822 79.556C122.054 79.668 122.31 79.732 122.59 79.748C122.878 79.764 123.174 79.772 123.478 79.772H124.234V77.576ZM33.6712 91.676H36.1192C36.5272 91.676 36.8752 91.704 37.1632 91.76C37.4592 91.816 37.7072 91.916 37.9072 92.06C38.0832 92.18 38.2192 92.34 38.3152 92.54C38.4192 92.74 38.4712 92.976 38.4712 93.248C38.4712 93.88 38.1872 94.332 37.6192 94.604C38.0512 94.7 38.3632 94.888 38.5552 95.168C38.7472 95.448 38.8432 95.768 38.8432 96.128C38.8352 96.464 38.7792 96.74 38.6752 96.956C38.5712 97.164 38.4232 97.348 38.2312 97.508C38.0472 97.66 37.8192 97.78 37.5472 97.868C37.2752 97.956 36.9672 98 36.6232 98H33.6712V91.676ZM34.7152 92.576V94.376H35.5912C35.7912 94.376 35.9952 94.372 36.2032 94.364C36.4112 94.348 36.5952 94.312 36.7552 94.256C36.9552 94.192 37.1232 94.088 37.2592 93.944C37.3952 93.8 37.4672 93.628 37.4752 93.428C37.4752 93.196 37.4232 93.028 37.3192 92.924C37.2232 92.812 37.1032 92.732 36.9592 92.684C36.8152 92.628 36.6592 92.596 36.4912 92.588C36.3232 92.58 36.1672 92.576 36.0232 92.576H34.7152ZM34.7152 97.112H36.3832C36.5672 97.112 36.7432 97.1 36.9112 97.076C37.0872 97.052 37.2392 97.008 37.3672 96.944C37.4952 96.872 37.5992 96.776 37.6792 96.656C37.7592 96.536 37.8032 96.384 37.8112 96.2C37.8112 95.96 37.7552 95.772 37.6432 95.636C37.5312 95.492 37.3792 95.388 37.1872 95.324C37.0272 95.276 36.8472 95.248 36.6472 95.24C36.4472 95.232 36.2392 95.228 36.0232 95.228L34.7152 95.24V97.112ZM40.2337 91.676H41.2777V94.088H42.4177C42.7777 94.088 43.1057 94.116 43.4017 94.172C43.7057 94.22 43.9737 94.324 44.2057 94.484C44.4217 94.644 44.5857 94.848 44.6977 95.096C44.8177 95.336 44.8777 95.636 44.8777 95.996C44.8617 96.356 44.7937 96.656 44.6737 96.896C44.5617 97.128 44.4137 97.324 44.2297 97.484C44.0057 97.668 43.7337 97.8 43.4137 97.88C43.0937 97.96 42.7657 98 42.4297 98H40.2337V91.676ZM45.7537 98V91.676H46.7737V98H45.7537ZM41.6137 97.112C41.9177 97.112 42.2217 97.108 42.5257 97.1C42.8377 97.084 43.1057 97.02 43.3297 96.908C43.4817 96.844 43.6017 96.736 43.6897 96.584C43.7857 96.424 43.8377 96.24 43.8457 96.032C43.8457 95.784 43.7937 95.588 43.6897 95.444C43.5937 95.3 43.4657 95.196 43.3057 95.132C43.1537 95.06 42.9817 95.016 42.7897 95C42.5977 94.984 42.4097 94.976 42.2257 94.976H41.2777V97.112H41.6137ZM51.0782 98.072C50.5742 98.072 50.1382 97.992 49.7702 97.832C49.4022 97.672 49.0982 97.448 48.8582 97.16C48.6182 96.872 48.4382 96.532 48.3182 96.14C48.1982 95.748 48.1382 95.32 48.1382 94.856C48.1382 94.408 48.2022 93.988 48.3302 93.596C48.4582 93.196 48.6462 92.852 48.8942 92.564C49.1422 92.268 49.4542 92.036 49.8302 91.868C50.2062 91.692 50.6622 91.604 51.1982 91.604C51.5182 91.604 51.8022 91.64 52.0502 91.712C52.2982 91.776 52.5302 91.884 52.7462 92.036C52.9702 92.18 53.1622 92.372 53.3222 92.612C53.4822 92.852 53.5982 93.144 53.6702 93.488H52.6262C52.5062 93.136 52.3142 92.884 52.0502 92.732C51.7942 92.58 51.4902 92.508 51.1382 92.516C50.7942 92.516 50.4902 92.584 50.2262 92.72C49.9702 92.848 49.7622 93.02 49.6022 93.236C49.4502 93.452 49.3382 93.704 49.2662 93.992C49.1942 94.272 49.1582 94.56 49.1582 94.856C49.1582 95.168 49.1942 95.464 49.2662 95.744C49.3462 96.024 49.4622 96.272 49.6142 96.488C49.7742 96.696 49.9782 96.864 50.2262 96.992C50.4742 97.112 50.7702 97.172 51.1142 97.172C51.2822 97.172 51.4462 97.156 51.6062 97.124C51.7742 97.092 51.9262 97.04 52.0622 96.968C52.2062 96.888 52.3302 96.784 52.4342 96.656C52.5382 96.528 52.6142 96.372 52.6622 96.188H53.7182C53.6542 96.516 53.5382 96.8 53.3702 97.04C53.2102 97.272 53.0102 97.468 52.7702 97.628C52.5302 97.78 52.2662 97.892 51.9782 97.964C51.6902 98.036 51.3902 98.072 51.0782 98.072ZM59.679 91.676V92.576H57.507V98H56.487V92.576H54.315V91.676H59.679ZM65.3715 91.676H66.5235L64.7355 96.656C64.6395 96.912 64.5355 97.204 64.4235 97.532C64.3195 97.852 64.1995 98.172 64.0635 98.492C63.9355 98.82 63.7875 99.128 63.6195 99.416C63.4595 99.704 63.2795 99.936 63.0795 100.112C62.7835 100.376 62.4995 100.54 62.2275 100.604C61.9555 100.676 61.6475 100.712 61.3035 100.712H61.0875V99.74C61.3755 99.74 61.6195 99.708 61.8195 99.644C62.0195 99.588 62.1915 99.496 62.3355 99.368C62.4875 99.24 62.6155 99.08 62.7195 98.888C62.8315 98.696 62.9435 98.468 63.0555 98.204L60.2235 91.676H61.4235L63.6195 97.004L65.3715 91.676ZM67.4681 98V91.676H72.7121V98H71.6921V92.576H68.4881V98H67.4681ZM74.9115 95.036C74.9515 94.46 74.9795 93.9 74.9955 93.356C75.0195 92.812 75.0355 92.252 75.0435 91.676H79.4355V98H78.4155V92.576H76.0395L75.9315 95.06C75.9155 95.38 75.8795 95.74 75.8235 96.14C75.7675 96.54 75.6515 96.904 75.4755 97.232C75.3395 97.464 75.1555 97.652 74.9235 97.796C74.6915 97.94 74.4235 98.012 74.1195 98.012H73.7475V97.112C74.0675 97.112 74.3235 96.976 74.5155 96.704C74.6275 96.544 74.7155 96.312 74.7795 96.008C74.8435 95.704 74.8875 95.38 74.9115 95.036ZM81.8304 95.216C81.8544 95.496 81.9104 95.756 81.9984 95.996C82.0944 96.228 82.2224 96.432 82.3824 96.608C82.5424 96.784 82.7384 96.924 82.9704 97.028C83.2104 97.124 83.4864 97.172 83.7984 97.172C83.9504 97.172 84.1064 97.16 84.2664 97.136C84.4344 97.104 84.5904 97.056 84.7344 96.992C84.8784 96.92 85.0064 96.828 85.1184 96.716C85.2304 96.604 85.3144 96.468 85.3704 96.308H86.4144C86.3424 96.612 86.2184 96.876 86.0424 97.1C85.8744 97.324 85.6704 97.508 85.4304 97.652C85.1984 97.796 84.9384 97.904 84.6504 97.976C84.3624 98.04 84.0704 98.072 83.7744 98.072C83.2704 98.072 82.8304 97.992 82.4544 97.832C82.0864 97.672 81.7784 97.452 81.5304 97.172C81.2824 96.884 81.0984 96.544 80.9784 96.152C80.8584 95.752 80.7984 95.316 80.7984 94.844C80.7984 94.372 80.8624 93.94 80.9904 93.548C81.1264 93.148 81.3184 92.804 81.5664 92.516C81.8144 92.228 82.1184 92.004 82.4784 91.844C82.8384 91.684 83.2664 91.604 83.7624 91.604C84.2664 91.604 84.7024 91.704 85.0704 91.904C85.4384 92.104 85.7344 92.368 85.9584 92.696C86.1824 93.016 86.3384 93.364 86.4264 93.74C86.5224 94.116 86.5624 94.464 86.5464 94.784C86.5464 94.856 86.5424 94.928 86.5344 95C86.5344 95.072 86.5304 95.144 86.5224 95.216H81.8304ZM85.5144 94.328C85.4984 93.792 85.3304 93.356 85.0104 93.02C84.6904 92.684 84.2624 92.516 83.7264 92.516C83.4304 92.516 83.1704 92.564 82.9464 92.66C82.7224 92.756 82.5344 92.888 82.3824 93.056C82.2304 93.224 82.1104 93.42 82.0224 93.644C81.9344 93.86 81.8784 94.088 81.8544 94.328H85.5144ZM87.9173 98V91.676H88.9373V94.448H92.1053V91.676H93.1253V98H92.1053V95.348H88.9373V98H87.9173ZM95.7336 98H94.7376V91.676H95.7576V96.524C95.8136 96.412 95.8896 96.292 95.9856 96.164C96.0816 96.028 96.1576 95.924 96.2136 95.852L99.2736 91.676H100.282V98H99.2616V93.152C99.1976 93.272 99.1256 93.388 99.0456 93.5C98.9736 93.604 98.9056 93.696 98.8416 93.776L95.7336 98ZM106.686 98H105.666V95.66H104.214L102.678 98H101.49L103.134 95.504C102.678 95.376 102.322 95.168 102.066 94.88C101.81 94.584 101.674 94.192 101.658 93.704C101.65 93.28 101.714 92.94 101.85 92.684C101.994 92.42 102.182 92.208 102.414 92.048C102.638 91.888 102.898 91.788 103.194 91.748C103.49 91.7 103.806 91.676 104.142 91.676H106.686V98ZM105.666 92.576L104.31 92.564C104.11 92.564 103.906 92.572 103.698 92.588C103.498 92.604 103.318 92.656 103.158 92.744C103.022 92.824 102.91 92.94 102.822 93.092C102.742 93.236 102.698 93.424 102.69 93.656C102.698 93.872 102.75 94.056 102.846 94.208C102.942 94.352 103.078 94.468 103.254 94.556C103.486 94.668 103.742 94.732 104.022 94.748C104.31 94.764 104.606 94.772 104.91 94.772H105.666V92.576ZM108.884 96.656C109.084 96.656 109.252 96.724 109.388 96.86C109.532 96.996 109.604 97.168 109.604 97.376C109.604 97.584 109.532 97.756 109.388 97.892C109.252 98.028 109.084 98.096 108.884 98.096C108.676 98.096 108.504 98.028 108.368 97.892C108.24 97.756 108.176 97.584 108.176 97.376C108.176 97.168 108.24 96.996 108.368 96.86C108.504 96.724 108.676 96.656 108.884 96.656ZM111.692 96.656C111.892 96.656 112.06 96.724 112.196 96.86C112.34 96.996 112.412 97.168 112.412 97.376C112.412 97.584 112.34 97.756 112.196 97.892C112.06 98.028 111.892 98.096 111.692 98.096C111.484 98.096 111.312 98.028 111.176 97.892C111.048 97.756 110.984 97.584 110.984 97.376C110.984 97.168 111.048 96.996 111.176 96.86C111.312 96.724 111.484 96.656 111.692 96.656ZM114.452 96.656C114.652 96.656 114.82 96.724 114.956 96.86C115.1 96.996 115.172 97.168 115.172 97.376C115.172 97.584 115.1 97.756 114.956 97.892C114.82 98.028 114.652 98.096 114.452 98.096C114.244 98.096 114.072 98.028 113.936 97.892C113.808 97.756 113.744 97.584 113.744 97.376C113.744 97.168 113.808 96.996 113.936 96.86C114.072 96.724 114.244 96.656 114.452 96.656Z" fill="#01131E"/>
</svg>
