<svg width="247" height="179" viewBox="0 0 247 179" fill="none" xmlns="http://www.w3.org/2000/svg">
<mask id="mask0_1_233" style="mask-type:luminance" maskUnits="userSpaceOnUse" x="30" y="0" width="217" height="179">
<path d="M246.029 94.92C246.029 123.137 223.157 146.004 194.943 146.004C193.103 146.004 191.288 145.903 189.494 145.714C180.321 165.188 160.521 178.675 137.565 178.675C108.641 178.675 84.7287 157.272 80.7732 129.439C77.5329 130.395 74.111 130.918 70.5619 130.918C50.6811 130.918 34.5663 114.801 34.5663 94.92C34.5663 88.8349 36.0835 83.1075 38.7467 78.0845C33.5611 73.327 30.291 66.5157 30.291 58.9243C30.291 44.557 41.9383 32.9097 56.3029 32.9097C58.511 32.9097 60.6378 33.2105 62.686 33.7306C70.5646 17.8082 88.5922 6.67301 109.586 6.67301C123.374 6.67301 135.88 11.4847 145.078 19.2902C152.959 7.65379 166.287 0 181.402 0C205.612 0 225.238 19.6261 225.238 43.8363C225.238 47.0143 224.894 50.1056 224.252 53.0913C237.413 62.33 246.029 77.6184 246.029 94.92Z" fill="white"/>
</mask>
<g mask="url(#mask0_1_233)">
<path d="M246.029 94.92C246.029 123.137 223.157 146.004 194.943 146.004C193.103 146.004 191.288 145.903 189.494 145.714C180.321 165.188 160.521 178.675 137.565 178.675C108.641 178.675 84.7287 157.272 80.7732 129.439C77.5329 130.395 74.111 130.918 70.5619 130.918C50.6811 130.918 34.5663 114.801 34.5663 94.92C34.5663 88.8349 36.0835 83.1075 38.7467 78.0845C33.5611 73.327 30.291 66.5157 30.291 58.9243C30.291 44.557 41.9383 32.9097 56.3029 32.9097C58.511 32.9097 60.6378 33.2105 62.686 33.7306C70.5646 17.8082 88.5922 6.67301 109.586 6.67301C123.374 6.67301 135.88 11.4847 145.078 19.2902C152.959 7.65379 166.287 0 181.402 0C205.612 0 225.238 19.6261 225.238 43.8363C225.238 47.0143 224.894 50.1056 224.252 53.0913C237.413 62.33 246.029 77.6184 246.029 94.92Z" fill="#ECF9FF"/>
</g>
<mask id="mask1_1_233" style="mask-type:luminance" maskUnits="userSpaceOnUse" x="6" y="22" width="20" height="17">
<path d="M25.4405 30.118C25.4405 25.7076 21.1447 22.1328 15.8472 22.1328C10.5471 22.1328 6.25391 25.7076 6.25391 30.118C6.25391 34.5272 10.5471 38.1005 15.8472 38.1005C21.1447 38.1005 25.4405 34.5272 25.4405 30.118Z" fill="white"/>
</mask>
<g mask="url(#mask1_1_233)">
<path d="M25.4405 30.118C25.4405 25.7076 21.1447 22.1328 15.8472 22.1328C10.5471 22.1328 6.25391 25.7076 6.25391 30.118C6.25391 34.5272 10.5471 38.1005 15.8472 38.1005C21.1447 38.1005 25.4405 34.5272 25.4405 30.118Z" fill="#ECF9FF"/>
</g>
<mask id="mask2_1_233" style="mask-type:luminance" maskUnits="userSpaceOnUse" x="0" y="10" width="11" height="9">
<path d="M10.725 14.7606C10.725 12.6066 8.54135 10.8596 5.84816 10.8596C3.15497 10.8596 0.972656 12.6066 0.972656 14.7606C0.972656 16.916 3.15497 18.6629 5.84816 18.6629C8.54135 18.6629 10.725 16.916 10.725 14.7606Z" fill="white"/>
</mask>
<g mask="url(#mask2_1_233)">
<path d="M10.725 14.7606C10.725 12.6066 8.54135 10.8596 5.84816 10.8596C3.15497 10.8596 0.972656 12.6066 0.972656 14.7606C0.972656 16.916 3.15497 18.6629 5.84816 18.6629C8.54135 18.6629 10.725 16.916 10.725 14.7606Z" fill="#ECF9FF"/>
</g>
</svg>
