<svg width="198" height="144" viewBox="0 0 198 144" fill="none" xmlns="http://www.w3.org/2000/svg">
<mask id="mask0_1_211" style="mask-type:luminance" maskUnits="userSpaceOnUse" x="0" y="0" width="175" height="144">
<path d="M0.289932 67.5009C0.289932 44.7597 18.7231 26.3309 41.4621 26.3309C42.9447 26.3309 44.4077 26.4117 45.8531 26.5645C53.2465 10.8695 69.2035 1.49262e-06 87.7044 1.49262e-06C111.015 1.49262e-06 130.287 17.2497 133.475 39.6808C136.087 38.9101 138.844 38.4887 141.705 38.4887C157.727 38.4887 170.715 51.4783 170.715 67.5009C170.715 72.405 169.492 77.0209 167.346 81.0691C171.525 84.9034 174.16 90.3928 174.16 96.5109C174.16 108.09 164.773 117.477 153.196 117.477C151.417 117.477 149.703 117.235 148.052 116.815C141.702 129.648 127.173 138.622 110.253 138.622C99.1416 138.622 89.0625 134.744 81.6495 128.453C75.2977 137.832 64.557 144 52.3752 144C32.8634 144 17.0461 128.183 17.0461 108.671C17.0461 106.11 17.3234 103.618 17.8409 101.212C7.23346 93.7662 0.289932 81.4447 0.289932 67.5009Z" fill="white"/>
</mask>
<g mask="url(#mask0_1_211)">
<path d="M0.289932 67.5009C0.289932 44.7597 18.7231 26.3309 41.4621 26.3309C42.9447 26.3309 44.4077 26.4117 45.8531 26.5645C53.2465 10.8695 69.2035 0 87.7044 0C111.015 0 130.287 17.2497 133.475 39.6808C136.087 38.9101 138.844 38.4887 141.705 38.4887C157.727 38.4887 170.715 51.4783 170.715 67.5009C170.715 72.405 169.492 77.0209 167.346 81.0691C171.525 84.9034 174.16 90.3928 174.16 96.5109C174.16 108.09 164.773 117.477 153.196 117.477C151.417 117.477 149.703 117.235 148.052 116.815C141.702 129.648 127.173 138.622 110.253 138.622C99.1416 138.622 89.0625 134.744 81.6495 128.453C75.2977 137.832 64.557 144 52.3752 144C32.8634 144 17.0461 128.183 17.0461 108.671C17.0461 106.11 17.3234 103.618 17.8409 101.212C7.23345 93.7662 0.289932 81.4447 0.289932 67.5009Z" fill="#ECF9FF"/>
</g>
<mask id="mask1_1_211" style="mask-type:luminance" maskUnits="userSpaceOnUse" x="178" y="113" width="16" height="14">
<path d="M178.07 119.727C178.07 123.281 181.532 126.162 185.802 126.162C190.073 126.162 193.533 123.281 193.533 119.727C193.533 116.173 190.073 113.293 185.802 113.293C181.532 113.293 178.07 116.173 178.07 119.727Z" fill="white"/>
</mask>
<g mask="url(#mask1_1_211)">
<path d="M178.07 119.727C178.07 123.281 181.532 126.162 185.802 126.162C190.073 126.162 193.533 123.281 193.533 119.727C193.533 116.173 190.073 113.293 185.802 113.293C181.532 113.293 178.07 116.173 178.07 119.727Z" fill="#ECF9FF"/>
</g>
<mask id="mask2_1_211" style="mask-type:luminance" maskUnits="userSpaceOnUse" x="189" y="128" width="9" height="8">
<path d="M189.929 132.104C189.929 133.84 191.689 135.248 193.86 135.248C196.03 135.248 197.789 133.84 197.789 132.104C197.789 130.367 196.03 128.959 193.86 128.959C191.689 128.959 189.929 130.367 189.929 132.104Z" fill="white"/>
</mask>
<g mask="url(#mask2_1_211)">
<path d="M189.929 132.104C189.929 133.84 191.689 135.248 193.86 135.248C196.03 135.248 197.789 133.84 197.789 132.104C197.789 130.367 196.03 128.959 193.86 128.959C191.689 128.959 189.929 130.367 189.929 132.104Z" fill="#ECF9FF"/>
</g>
</svg>
