<svg width="100" height="64" viewBox="0 0 100 64" fill="none" xmlns="http://www.w3.org/2000/svg">
<path d="M97.9555 5.82025C97.3921 4.57569 96.6251 3.53139 95.6551 2.68478C94.6838 1.84138 93.5378 1.18797 92.2177 0.723907C90.897 0.262412 89.4797 0.0217156 87.965 0.001818C85.4016 -0.0334841 82.9253 0.44534 80.5372 1.43829C78.1492 2.43125 75.8958 3.78235 73.7792 5.49483C71.6625 7.2073 69.7211 9.19192 67.9537 11.4493C66.1864 13.7074 64.6717 16.0752 63.4103 18.5521C62.1477 21.029 61.1679 23.5592 60.4686 26.1401C59.7693 28.7223 59.4206 31.1736 59.4206 33.4939C59.4206 37.123 60.252 40.01 61.8969 42.1725C61.7932 42.2264 61.8454 41.9042 61.7409 41.9568C60.5866 42.53 59.4393 42.9761 58.3081 43.2957C57.1737 43.6153 56.1837 43.772 55.3328 43.7655C49.5783 43.7232 48.645 40.5524 49.715 35.5016C49.7827 35.1441 49.8574 34.7783 49.9483 34.3899C52.6032 23.1035 60.6381 10.2009 68.5648 3.26374C68.9231 3.03202 69.5567 2.43895 69.5567 2.43895C70.9264 1.39208 73.1791 0.179613 73.1791 0.179613C73.1791 0.179613 71.5355 0.304772 68.9882 1.57501C68.9882 1.57501 66.5061 2.73805 65.7732 3.27144C58.5801 8.01989 51.8819 13.2504 46.8068 19.7177C43.9888 23.3096 42.1667 25.5195 39.4809 29.877C40.5585 27.1293 41.6884 23.8731 42.6121 20.1876C43.4945 16.6676 44.5734 13.1875 46.0269 9.86395C47.2303 7.11102 48.9338 3.85681 51.1078 1.1424C51.4308 0.815051 51.6957 0.492838 51.6957 0.492838C51.6957 0.492838 51.3489 0.661004 50.9454 0.895282C50.4826 1.16486 50.4066 1.19503 49.6608 1.64625C49.2077 1.92097 48.6231 2.34588 48.1732 2.63279C47.7388 2.91007 47.3147 3.20211 46.9144 3.52689C46.4291 3.89532 45.9051 4.28942 45.3785 4.72781C44.8731 5.1893 44.3414 5.67455 43.7884 6.18097C43.5099 6.43515 43.2276 6.69638 42.9505 6.97559C42.683 7.26507 42.411 7.55968 42.1338 7.86071C41.5847 8.47368 41.0181 9.10527 40.4335 9.7574C39.8779 10.4127 39.3951 11.0989 38.8524 11.7921C38.5849 12.1393 38.3194 12.493 38.0564 12.8524L37.6561 13.3929L37.506 13.597L37.4183 13.726L37.2249 14.0129C36.1879 15.5476 35.1637 17.1522 34.1853 18.789C33.1862 20.4199 32.2387 22.0971 31.2564 23.7319C30.7833 24.5657 30.3012 25.3828 29.8101 26.1864C29.3247 27.0002 28.851 27.8038 28.3586 28.5882C27.3853 30.164 26.4075 31.6858 25.4078 33.1088C24.9321 33.8469 24.3946 34.5016 23.9034 35.1775C23.4239 35.8707 22.8831 36.4689 22.3829 37.0845C22.129 37.3893 21.8892 37.7051 21.6314 37.9882C21.3684 38.268 21.1093 38.5421 20.8534 38.813C20.5995 39.0877 20.3507 39.3586 20.1051 39.6243C19.8576 39.8874 19.583 40.1057 19.3362 40.3502C18.8231 40.8104 18.359 41.3092 17.8569 41.6943C17.3561 42.0929 16.8817 42.4716 16.4357 42.8278C15.9929 43.2052 15.5327 43.4343 15.1305 43.7354C14.7186 44.0152 14.3416 44.2854 13.9826 44.5139C9.58417 46.901 3.55636 44.7258 3.75682 39.1923C3.81161 37.6692 4.15515 35.9432 4.73202 34.1178C5.30824 32.2923 6.13391 30.3668 7.18388 28.4374C8.24674 26.5105 9.51392 24.5836 11.0325 22.7447C12.5568 20.8718 14.27 19.0053 16.1547 17.2427C18.0387 15.4879 20.1122 13.848 22.3327 12.509C23.4426 11.8447 24.5873 11.2491 25.7449 10.7991C26.8916 10.3492 28.093 10.0379 29.0895 10.0809C30.104 10.1348 30.6396 10.4731 30.9838 11.2658C31.3183 12.0771 31.2719 13.2767 31.0483 14.4064C30.5887 16.7132 29.5684 18.9372 28.5281 20.9591C27.4665 22.9886 26.2941 24.8327 25.1242 26.4688C23.9518 28.101 22.7748 29.5311 21.6321 30.6806C21.0603 31.2538 20.4951 31.7577 19.9408 32.1499C19.8073 32.2429 19.6778 32.3302 19.5231 32.422C19.3781 32.5035 19.2376 32.5812 19.099 32.6576C18.8186 32.8193 18.5427 32.9496 18.2791 33.0735C17.2259 33.5696 16.3358 33.7969 15.7248 33.8585C15.5785 33.8675 15.4489 33.8758 15.3335 33.881C14.5453 33.8559 13.7782 33.7558 13.222 33.2526C12.7998 32.87 12.5665 32.1556 12.531 31.4611C12.5601 31.2641 12.6103 31.0452 12.669 30.8116C12.7644 30.5574 12.8353 30.2814 12.9874 30.0003C13.1131 29.7121 13.2858 29.4175 13.4643 29.1164C13.6751 28.8218 13.8704 28.506 14.1289 28.2191C15.5914 26.3199 19.1744 24.3365 21.7564 24.6048C22.2186 24.6523 20.8573 22.6106 20.457 22.4135C19.4129 21.8981 18.3339 22.4386 17.3703 22.8134C14.9655 23.7537 12.7328 26.1004 12.094 28.6062C11.9896 29.0176 11.8813 29.3982 11.8523 29.7686C11.7937 30.1248 11.8117 30.4669 11.8053 30.7667C11.8285 31.0677 11.8562 31.336 11.902 31.5651C11.9213 31.6325 11.9361 31.6929 11.9522 31.7545C12.038 32.4278 12.281 33.0793 12.6645 33.5061C13.4005 34.327 14.5614 34.4323 15.7267 34.4561C15.8485 34.4586 15.9349 34.4098 15.991 34.3405C16.651 34.3014 17.5314 34.139 18.5685 33.7539C18.856 33.646 19.1602 33.5331 19.4664 33.3906C19.6236 33.3219 19.7848 33.2487 19.9498 33.1736C20.098 33.1024 20.2708 33.0106 20.4409 32.9079C21.0919 32.517 21.7274 32.0253 22.3726 31.4688C23.6572 30.3546 24.9727 28.9752 26.3063 27.3834C29.3254 23.7794 35.0657 15.4 33.531 10.4057C33.27 9.55586 32.6918 8.68293 31.8797 8.10526C31.065 7.51475 30.1207 7.26058 29.2738 7.18034C27.5561 7.03593 26.0614 7.41206 24.6518 7.86456C23.2441 8.33312 21.926 8.94032 20.6581 9.61234C18.1283 10.9647 15.7809 12.5597 13.5887 14.2857C11.3979 16.0129 9.38758 17.9096 7.65955 19.9719C5.9167 22.0656 4.54123 24.3436 3.52994 26.6113C2.51027 28.8802 1.82447 31.1479 1.45321 33.3046C1.08002 35.458 1.04006 37.5094 1.30561 39.3155C1.44483 40.2193 1.6672 41.062 1.95338 41.8175C2.24858 42.571 2.62693 43.2289 3.03686 43.7732C4.56122 45.7867 7.51904 46.5461 9.93352 46.3246C14.7315 45.8843 17.7203 44.8817 21.7081 42.0948C22.0317 41.8631 22.3604 41.6269 22.6949 41.3855C23.0281 41.141 23.3685 40.8907 23.7133 40.6371C24.0485 40.374 24.3643 40.0819 24.6975 39.7982C25.364 39.2289 26.0395 38.6262 26.6653 37.9644C27.3112 37.3162 27.966 36.6416 28.5655 35.9163C29.1849 35.2032 29.8114 34.467 30.3786 33.691C30.9677 32.9252 31.5632 32.1466 32.0976 31.3289C32.6499 30.5189 33.2171 29.7108 33.7231 28.8693C34.2491 28.0368 34.7621 27.1973 35.2591 26.3532C36.2465 24.6555 37.194 22.9598 38.0867 21.2813C38.5424 20.4424 38.9839 19.6253 39.4106 18.8005C39.8431 17.9892 40.2704 17.1882 40.69 16.3987C41.5692 14.8441 42.4193 13.3396 43.2257 11.916C43.6453 11.2414 44.0539 10.5848 44.4497 9.9506C44.5663 9.75612 44.6791 9.56805 44.7932 9.37999C42.9808 13.3024 41.216 17.8756 40.0803 22.4039C38.4863 28.7686 36.2543 33.8533 34.7776 37.2192C34.6706 37.4651 34.5643 37.7019 34.4605 37.9349C34.349 38.1833 34.2381 38.4253 34.1311 38.6596C33.1585 40.7796 32.0679 42.8355 31.1552 44.9639C31.5755 44.9036 32.0151 44.8772 32.3477 44.6519C35.7567 42.3201 37.6716 37.8688 39.2804 34.6967C41.7735 29.7776 44.4078 24.8661 47.8207 20.5156C49.8929 17.8743 52.2597 15.4834 54.8275 13.251C52.8062 15.9642 50.685 19.5842 48.4903 24.6427C41.963 39.6865 44.5509 43.521 48.5864 45.3573C49.7833 45.9029 51.4495 46.1199 52.7863 46.1963C58.7148 46.5371 64.3378 43.1737 68.5383 39.4067C72.1845 36.1358 75.8127 30.6126 81.1199 29.9759C89.1278 29.017 87.5873 37.4214 83.4499 41.0088C82.4947 41.7148 81.4944 42.3323 80.4496 42.8567C79.3616 43.4035 78.2736 43.8233 77.1869 44.1179C76.0989 44.4125 75.1275 44.5544 74.2735 44.5428C72.6428 44.5204 71.2532 44.2129 70.1085 43.6166C69.3079 43.202 68.6183 42.6628 68.0285 42.012C66.9566 42.9709 65.819 43.8336 64.5525 44.5139C66.332 45.5454 68.5957 46.091 71.3608 46.1289C72.7582 46.1475 74.2149 46.0223 75.7296 45.7514C77.2442 45.4819 78.7099 45.0685 80.1279 44.5056C81.5447 43.9453 82.8653 43.2585 84.09 42.4414C86.2698 40.9876 88.2228 39.2295 89.7433 37.0793C91.0943 35.1691 92.21 32.6191 91.2915 30.293C89.4565 25.6472 83.1522 26.2987 79.7077 27.9386C74.3264 30.5009 70.8239 35.5042 66.3333 39.2225C66.0929 38.6134 65.8918 37.9638 65.7384 37.2642C65.4078 35.7699 65.2421 34.096 65.2421 32.2384C65.2421 30.4996 65.5335 28.5214 66.1161 26.3038C66.6988 24.0888 67.5135 21.8269 68.5622 19.5207C69.6109 17.2151 70.8536 14.9609 72.2903 12.7562C73.7269 10.5507 75.31 8.59051 77.038 6.8729C78.766 5.15529 80.6101 3.77914 82.5727 2.7419C84.5334 1.70402 86.5425 1.19888 88.6018 1.22648C89.6505 1.23996 90.6605 1.43829 91.6318 1.81956C92.6019 2.20082 93.4565 2.73356 94.1952 3.42035C94.9326 4.10713 95.5146 4.91587 95.9426 5.85234C96.3692 6.78496 96.5832 7.81193 96.5832 8.9339C96.5832 10.0559 96.3692 11.2041 95.9426 12.3775C95.5146 13.5508 94.9229 14.6265 94.1655 15.6015C93.4082 16.5771 92.5058 17.3782 91.4572 18.0021C90.4085 18.6253 89.2625 18.9295 88.0198 18.9122C86.6598 18.8949 85.5731 18.7055 84.7571 18.3467C83.9411 17.9866 83.5344 17.1509 83.5344 15.8358C83.5344 14.8306 83.6884 13.9141 84.0004 13.0867C84.3104 12.2594 84.6888 11.5199 85.1361 10.8678C85.5821 10.217 86.0591 9.66305 86.5631 9.20412C87.0684 8.74776 87.5338 8.38832 87.9618 8.12195C88.0784 8.04557 88.0494 7.93003 87.8741 7.77213C87.6994 7.61552 87.5538 7.5738 87.4371 7.65083C86.6991 7.87291 85.9804 8.28883 85.2817 8.89795C84.5824 9.50708 83.9611 10.224 83.4171 11.0482C82.8731 11.8723 82.4361 12.7754 82.1067 13.7562C81.776 14.7389 81.611 15.7132 81.611 16.6798C81.611 17.5309 81.7857 18.3069 82.1351 19.0066C82.4844 19.7087 82.9504 20.305 83.5331 20.7954C84.1151 21.2884 84.7854 21.6741 85.5421 21.954C86.2995 22.2357 87.1058 22.3814 87.9598 22.393C89.5126 22.4142 90.9499 22.047 92.2706 21.2909C93.5906 20.5348 94.7366 19.565 95.7073 18.3788C96.678 17.194 97.4353 15.8692 97.98 14.407C98.5233 12.9442 98.7953 11.4988 98.7953 10.0668C98.8005 8.48075 98.5188 7.06674 97.9555 5.82025Z" fill="#00ACC8"/>
<path d="M0.00128839 63.192L1.21819 62.889V55.6174H0.00128839V54.8594H3.52567C6.3778 61.4872 6.37779 61.4872 6.37779 62.3588H6.80899C6.80899 61.4878 6.809 61.4878 9.66112 54.8594H13.0843V55.4653L11.8674 55.7689V63.0405H13.0843V63.7979H9.20478V63.192L10.4217 62.889V56.1476H9.95246C9.95246 56.905 9.95245 56.905 6.9856 63.7979H5.71778C2.75093 56.905 2.75093 56.905 2.75093 56.1476H2.2817V63.0405H3.4986V63.7979H0V63.192H0.00128839Z" fill="white"/>
<path d="M21.7807 63.1926L23.0988 62.8646L22.5155 61.4121H17.9263L17.3939 62.7375V63.0411H18.4587V63.7985H15.2637V63.1926L16.177 62.9654L19.004 55.9204V55.6174H17.9263V54.8594H21.5016L24.7849 63.0405H25.6847V63.7979H21.78L21.7807 63.1926ZM19.8793 55.921C19.8793 56.5269 19.6511 57.095 18.2814 60.5039H22.161C20.792 57.095 20.5638 56.5276 20.5638 55.921H19.8793Z" fill="white"/>
<path d="M31.6693 59.9345C31.6693 60.3639 31.0228 61.2221 29.882 62.7369V63.0405H31.1369V63.7979H27.4102V63.2042L28.386 62.9647L31.1247 59.3286L28.3228 55.6174H27.4102V54.8594H29.6918C31.2897 56.9807 32.0883 58.0411 32.0883 58.7227H33.039C33.039 58.2939 33.6855 57.4351 34.8263 55.9204V55.6174H33.5714V54.8594H36.6143V55.3138L33.5843 59.3286L36.6143 63.3434V63.7979H35.0165C33.4193 61.6765 32.6207 60.6168 32.6207 59.9345H31.6693Z" fill="white"/>
<path d="M46.2482 57.2835L45.9188 55.9709C44.8031 55.6929 43.7383 55.6929 43.5862 55.6929C41.1524 55.6929 41.1524 56.3746 41.1524 59.2527V59.4042C41.1524 62.1308 41.1524 62.9645 43.5862 62.9645C44.575 62.9645 45.7919 62.6609 46.4003 62.5101H47.0088V63.5197C45.0816 63.9992 44.0419 63.9992 43.4335 63.9992C39.4785 63.9992 39.4785 61.3734 39.4785 59.5556V59.1012C39.4785 57.4343 39.4785 54.657 43.4335 54.657C44.0419 54.657 45.0816 54.657 47.0088 55.1371V57.2828L46.2482 57.2835Z" fill="white"/>
<path d="M60.0648 55.4653L58.8479 55.7689V63.0405H60.0648V63.7979H56.1853V63.192L57.4022 62.889V59.7831H52.6861V63.0405H53.903V63.7979H50.0234V63.192L51.2403 62.889V55.6174H50.0234V54.8594H53.903V55.4653L52.6861 55.7689V58.8742H57.4022V55.6174H56.1853V54.8594H60.0648V55.4653Z" fill="white"/>
<path d="M68.7631 63.1926L70.0812 62.8646L69.4979 61.4121H64.9087L64.3763 62.7375V63.0411H65.4411V63.7985H62.2461V63.1926L63.1594 62.9654L65.9864 55.9204V55.6174H64.9087V54.8594H68.484L71.7673 63.0405H72.6671V63.7979H68.7625V63.1926H68.7631ZM66.8611 55.921C66.8611 56.5269 66.6329 57.095 65.2632 60.5039H69.1427C67.7737 57.095 67.5456 56.5276 67.5456 55.921H66.8611Z" fill="white"/>
<path d="M78.423 54.86C81.8462 54.86 83.5194 54.86 83.5194 57.5873C83.5194 59.0513 82.9109 59.5058 81.694 60.4146L83.8997 63.3434V63.7979H82.3018C81.3131 62.4846 80.6286 61.5758 80.6286 60.6168H77.5103V63.0405H78.7272V63.7979H74.8477V63.192L76.0646 62.889V55.6174H74.8477V54.8594H78.423V54.86ZM77.5103 59.708H79.7159C81.9216 59.708 81.9216 59.4807 81.9216 57.8145C81.9216 55.9967 81.9216 55.7695 79.7159 55.7695H77.5103V59.708Z" fill="white"/>
<path d="M86.9173 63.192L88.1342 62.889V55.6174H86.9173V54.8594H90.4417C93.2938 61.4872 93.2938 61.4872 93.2938 62.3588H93.725C93.725 61.4878 93.725 61.4878 96.5771 54.8594H100V55.4653L98.7834 55.7689V63.0405H100V63.7979H96.1208V63.192L97.3377 62.889V56.1476H96.8685C96.8685 56.905 96.8685 56.905 93.9016 63.7979H92.6338C89.6669 56.905 89.6669 56.905 89.6669 56.1476H89.1977V63.0405H90.4153V63.7979H86.916V63.192H86.9173Z" fill="white"/>
</svg>
